<svg width="1284" height="1273" viewBox="0 0 1284 1273" fill="none" xmlns="http://www.w3.org/2000/svg">
<g clip-path="url(#clip0_294_2149)">
<path d="M1087.6 1088.62H1197.98V1053.49H1087.6V1088.62Z" fill="#E7E8E5"/>
<path d="M1020.82 355.446H910.438V320.313H1020.82V355.446Z" fill="#E7E8E5"/>
<path d="M1149.17 1132.92L1148.43 1097.79L1148.41 1097.06L1149.17 1097.05C1162.95 1096.86 1190.6 1096.55 1204.37 1096.44L1259.56 1096.22L1261.13 1096.22L1261.13 1097.79L1260.99 1132.92L1260.99 1134.36L1259.56 1134.36L1231.71 1134.22C1214.13 1134.03 1167.33 1133.24 1149.17 1132.92V1132.92ZM1149.17 1132.92C1167.51 1132.61 1214.51 1131.83 1232.21 1131.63L1259.56 1131.49L1258.13 1132.92L1257.99 1097.79L1259.56 1099.36C1241.23 1099.3 1194.48 1099.13 1176.77 1098.88L1149.17 1098.53L1149.92 1097.79L1149.17 1132.92" fill="#E7E8E5"/>
<path d="M649.989 705.976L649.245 670.843L649.989 671.587C636.218 671.781 608.56 672.076 594.795 672.196L539.602 672.409L541.172 670.843L541.034 705.976L539.602 704.544L566.952 704.679C584.447 704.88 631.891 705.668 649.989 705.976V705.976ZM649.989 705.976C631.596 706.29 585.222 707.075 567.448 707.273L539.602 707.405L538.177 707.414L538.174 705.976L538.036 670.843L538.029 669.27L539.602 669.276L594.795 669.486C608.538 669.609 636.246 669.904 649.989 670.098L650.748 670.108L650.733 670.843L649.989 705.976" fill="#E7E8E5"/>
<path d="M588.413 750.277L587.669 715.144L588.413 715.888C574.643 716.082 546.985 716.378 533.22 716.497L478.03 716.71L479.597 715.144L479.459 750.274L478.03 748.845L505.377 748.977C522.875 749.181 570.316 749.969 588.413 750.277V750.277ZM588.413 750.277C570.021 750.591 523.647 751.376 505.873 751.574L478.03 751.706L476.605 751.712L476.599 750.274L476.46 715.144L476.454 713.567L478.03 713.574L533.22 713.787C546.963 713.91 574.671 714.205 588.413 714.396L589.173 714.406L589.158 715.144L588.413 750.277" fill="#E7E8E5"/>
<path d="M416.696 705.977H527.079V670.842H416.696V705.977Z" fill="#E7E8E5"/>
<path d="M23.5107 1132.92H133.895V1097.79H23.5107V1132.92Z" fill="#E7E8E5"/>
<path d="M85.084 47.9893H195.47V12.8557H85.084V47.9893Z" fill="#E7E8E5"/>
<path d="M23.5107 92.2905L22.765 57.157L22.749 56.4223L23.5107 56.4129C37.2825 56.2308 64.9378 55.9137 78.7036 55.8038L133.895 55.5903L135.47 55.584L135.463 57.157L135.327 92.2905L135.32 93.7285L133.895 93.7222L106.051 93.5872C88.4672 93.3926 41.6709 92.6013 23.5107 92.2905V92.2905ZM23.5107 92.2905C41.8448 91.9797 88.8512 91.1979 106.546 90.9938L133.895 90.8588L132.464 92.2905L132.328 57.157L133.895 58.7269C115.565 58.6673 68.8169 58.4977 51.107 58.2465L23.5107 57.9011L24.2563 57.157L23.5107 92.2905" fill="#E7E8E5"/>
<path d="M1087.6 47.9888L1086.85 12.8584L1086.84 12.1206L1087.6 12.1112C1101.37 11.9291 1129.03 11.6119 1142.79 11.5021L1197.98 11.2886L1199.56 11.2823L1199.55 12.8584L1199.41 47.9888L1199.41 49.4268L1197.98 49.4205L1170.14 49.2855C1152.56 49.094 1105.76 48.2997 1087.6 47.9888ZM1087.6 47.9888C1105.93 47.6811 1152.94 46.8962 1170.63 46.6921L1197.98 46.5602L1196.55 47.9888L1196.41 12.8584L1197.98 14.4252L1142.79 14.2117C1129.05 14.1018 1101.34 13.7847 1087.6 13.6026L1088.34 12.8584L1087.6 47.9888" fill="#E7E8E5"/>
<path d="M1099.3 356.18V354.61H568.873V3.14053H1097.73V356.18H1099.3V354.61V356.18H1100.87V0.000807837H565.733V357.75H1100.87V356.18H1099.3" fill="#E7E8E5"/>
<path d="M591.855 16.7286C591.855 19.7271 589.422 22.1572 586.424 22.1572C583.425 22.1572 580.995 19.7271 580.995 16.7286C580.995 13.7271 583.425 11.2969 586.424 11.2969C589.422 11.2969 591.855 13.7271 591.855 16.7286Z" fill="#999B9B"/>
<path d="M614.027 16.7286C614.027 19.7271 611.597 22.1572 608.599 22.1572C605.597 22.1572 603.167 19.7271 603.167 16.7286C603.167 13.7271 605.597 11.2969 608.599 11.2969C611.597 11.2969 614.027 13.7271 614.027 16.7286Z" fill="#E7E8E5"/>
<path d="M636.204 16.7286C636.204 19.7271 633.771 22.1572 630.772 22.1572C627.774 22.1572 625.344 19.7271 625.344 16.7286C625.344 13.7271 627.774 11.2969 630.772 11.2969C633.771 11.2969 636.204 13.7271 636.204 16.7286Z" fill="#FA7C41"/>
<path d="M567.301 34.5977H1099.3V31.4579H567.301V34.5977Z" fill="#E7E8E5"/>
<path d="M239.238 364.149H27.0117V106.72H239.238V364.149Z" fill="#E7E8E5"/>
<path d="M214.986 340.654H51.2607V130.214H214.986V340.654Z" fill="white"/>
<path d="M57.6494 340.654H51.2607V130.214H57.6494V340.654Z" fill="#BEBFBD"/>
<path d="M245.625 364.149H239.236V106.72H245.625V364.149Z" fill="#BEBFBD"/>
<path d="M136.777 178.874H175.382V293.892H136.777V178.874Z" fill="#E7E8E5"/>
<path d="M89.2867 159.23V160.8H190.657V214.009H90.8565V159.23H89.2867V160.8V159.23H87.7168V217.148H193.796V157.66H87.7168V159.23H89.2867" fill="#E7E8E5"/>
<path d="M152.601 998.551H364.827V741.122H152.601V998.551Z" fill="#E7E8E5"/>
<path d="M340.576 975.056H176.851V764.619H340.576V975.056Z" fill="white"/>
<path d="M183.239 975.056H176.851V764.619H183.239V975.056Z" fill="#BEBFBD"/>
<path d="M364.829 998.551H371.219V741.122H364.829V998.551Z" fill="#BEBFBD"/>
<path d="M270.327 813.279H231.722V928.297H270.327V813.279Z" fill="#E7E8E5"/>
<path d="M317.817 793.63V792.06H213.307V851.552H319.387V792.06H317.817V793.63H316.247V848.412H216.446V795.2H317.817V793.63H316.247H317.817Z" fill="#E7E8E5"/>
<path d="M302.031 682.512H89.8047V425.086H302.031V682.512Z" fill="#E7E8E5"/>
<path d="M277.783 659.017H114.058V448.58H277.783V659.017" fill="white"/>
<path d="M120.446 659.017H114.058V448.58H120.446V659.017" fill="#BEBFBD"/>
<path d="M308.423 682.512H302.034V425.086H308.423V682.512Z" fill="#BEBFBD"/>
<path d="M213.138 586.6H180.065V502.976H213.138V586.6Z" fill="#E7E8E5"/>
<path d="M247.965 611.441V609.871H160.688V555.366H246.395V611.441H247.965V609.871V611.441H249.534V552.226H157.548V613.011H249.534V611.441H247.965Z" fill="#D4D6D3"/>
<path d="M0.258789 1268.44C411.101 1266.52 871.971 1266.5 1282.81 1268.44C871.968 1270.38 411.098 1270.36 0.258789 1268.44Z" fill="#17282F"/>
<path d="M1118.32 971.368C1167.37 1019.39 1175.61 1093.67 1165.27 1158.74C1165 1160.22 1162.72 1159.81 1162.72 1158.42C1162.72 1143.61 1163.17 1128.93 1163.12 1114.3C1162.85 1113.63 1162.63 1113 1162.36 1112.33C1149.56 1103.02 1137.79 1092.51 1130.5 1078.1C1122.31 1061.99 1119.09 1043.82 1112.82 1026.99C1112.24 1025.38 1113.96 1025.85 1115.08 1026.69C1144.92 1048.69 1154.43 1072.37 1162.99 1104.01C1162.59 1087.58 1161.33 1071.16 1157.8 1054.74C1151.35 1024.71 1138.6 994.95 1117.03 972.664C1116.22 971.816 1117.47 970.516 1118.32 971.368" fill="#17282F"/>
<path d="M1109.11 976.968C1100.67 977.253 1095.38 990.738 1088.81 994.676C1085.33 996.767 1081.94 996.641 1079.49 993.213C1072.98 984.114 1081.92 972.896 1090.33 966.619C1084.31 969.09 1079.32 973.435 1072.84 974.667C1068.92 975.389 1065.87 973.932 1064.95 969.941C1062.09 957.539 1077.65 952.026 1088.32 951.765C1083.15 948.167 1068.32 938.39 1076.19 933.583C1084.18 928.761 1101.58 942.736 1107.25 947.341C1115.59 954.108 1125.54 964.221 1125.91 974.808C1126.4 987.163 1115.6 979.558 1109.11 976.968Z" fill="#FA7C41"/>
<path d="M1084.47 996.058C1082.61 996.058 1080.9 995.176 1079.5 993.213C1077.93 991.018 1077.25 988.701 1077.25 986.359C1077.26 978.99 1083.95 971.383 1090.33 966.619C1084.31 969.09 1079.33 973.436 1072.85 974.667C1072.2 974.786 1071.59 974.846 1071 974.846C1067.98 974.846 1065.72 973.282 1064.95 969.941C1064.72 968.925 1064.61 967.953 1064.61 967.027C1064.61 956.67 1078.52 952.004 1088.32 951.766C1084.2 948.899 1073.94 942.108 1073.93 937.034C1073.93 935.744 1074.59 934.56 1076.2 933.583C1077.34 932.89 1078.68 932.585 1080.16 932.585C1088.94 932.585 1102.39 943.398 1107.25 947.342C1115.59 954.108 1125.54 964.221 1125.92 974.808C1125.93 975.068 1125.93 975.323 1125.93 975.571C1125.93 976.94 1125.78 978.032 1125.5 978.896C1125.21 979.763 1124.8 980.397 1124.28 980.833C1123.59 981.42 1122.71 981.661 1121.72 981.661C1118.09 981.661 1112.88 978.471 1109.11 976.968C1100.67 977.254 1095.38 990.738 1088.81 994.676C1087.32 995.568 1085.85 996.058 1084.47 996.058" fill="#F95B12"/>
<path d="M1111.55 979.046C1100.76 974.143 1080.04 981.201 1078.28 977.116C1074.7 968.805 1091.26 963.103 1100.2 962.001C1091.97 959.769 1076.2 956.218 1076.68 948.278C1077.27 938.582 1100.88 946.921 1112.82 956.08C1127.87 967.622 1127.78 978.754 1125.29 980.988C1121.87 984.045 1113.33 979.857 1111.55 979.046Z" fill="#FA7C41"/>
<path d="M1230.03 966.615C1179.19 1012.73 1168.14 1086.65 1175.99 1152.07C1176.2 1153.55 1178.5 1153.24 1178.55 1151.85C1179.11 1137.05 1179.23 1122.36 1179.83 1107.74C1180.12 1107.08 1180.37 1106.46 1180.66 1105.8C1193.81 1096.99 1205.97 1086.93 1213.81 1072.81C1222.6 1057.02 1226.51 1038.99 1233.41 1022.41C1234.06 1020.82 1232.32 1021.23 1231.17 1022.01C1200.52 1042.87 1190.11 1066.17 1180.36 1097.46C1181.38 1081.07 1183.26 1064.7 1187.42 1048.42C1195 1018.66 1208.87 989.412 1231.28 967.961C1232.11 967.142 1230.91 965.798 1230.03 966.615" fill="#17282F"/>
<path d="M1239.02 972.563C1247.45 973.165 1252.22 986.845 1258.64 991.027C1262.04 993.249 1265.42 993.249 1268 989.919C1274.86 981.077 1266.35 969.526 1258.19 962.936C1264.1 965.633 1268.92 970.164 1275.35 971.643C1279.24 972.509 1282.35 971.171 1283.42 967.218C1286.74 954.936 1271.41 948.832 1260.76 948.167C1266.06 944.77 1281.25 935.564 1273.57 930.462C1265.77 925.335 1247.85 938.641 1242.01 943.027C1233.42 949.47 1223.09 959.197 1222.32 969.762C1221.35 982.089 1232.44 974.902 1239.02 972.563" fill="#FA7C41"/>
<path d="M1263.15 992.576C1261.69 992.576 1260.17 992.023 1258.64 991.025C1252.22 986.842 1247.45 973.163 1239.03 972.56C1235.29 973.885 1230.11 976.773 1226.5 976.773C1225.39 976.773 1224.44 976.506 1223.72 975.844C1223.65 975.785 1223.59 975.721 1223.53 975.656C1223.47 975.059 1223.22 974.717 1222.87 974.654C1222.48 973.809 1222.26 972.679 1222.26 971.19C1222.26 970.745 1222.28 970.268 1222.32 969.759C1223.09 959.194 1233.42 949.467 1242.01 943.024C1246.94 939.329 1260.43 929.301 1269.22 929.301C1270.86 929.301 1272.34 929.652 1273.57 930.459C1275.07 931.455 1275.7 932.607 1275.7 933.844C1275.7 938.937 1265.03 945.43 1260.76 948.164C1270.4 948.767 1283.88 953.825 1283.88 963.89C1283.88 964.943 1283.73 966.051 1283.42 967.215C1282.56 970.405 1280.37 971.891 1277.51 971.891C1276.83 971.891 1276.1 971.806 1275.35 971.641C1268.92 970.161 1264.1 965.631 1258.19 962.934C1264.25 967.829 1270.51 975.467 1270.51 982.698C1270.51 985.194 1269.76 987.646 1268 989.916C1266.58 991.749 1264.92 992.576 1263.15 992.576" fill="#F95B12"/>
<path d="M1236.51 974.545C1247.47 970.056 1267.92 977.896 1269.83 973.883C1273.72 965.713 1257.39 959.387 1248.49 957.943C1256.81 956.028 1272.7 953.079 1272.52 945.127C1272.3 935.415 1248.4 942.85 1236.11 951.547C1220.63 962.507 1220.31 973.639 1222.71 975.962C1226 979.148 1234.7 975.287 1236.51 974.545" fill="#FA7C41"/>
<path d="M1178.04 1088.41C1174.29 1112.72 1169.63 1137.85 1162.25 1161.33C1161.55 1163.47 1158.37 1162.92 1158.7 1160.61C1162.04 1138.14 1168.13 1116.09 1171.47 1093.62C1174.86 1070.88 1176.67 1047.83 1175.37 1024.83C1173.23 986.969 1162.95 946.69 1138.24 917.06C1137.7 916.357 1138.85 915.365 1139.41 916.018C1188.88 973.697 1181.01 1044.42 1180.96 1050.75C1187.97 1026.87 1195.18 999.503 1221.67 975.189C1222.82 974.138 1223.71 974.637 1223.52 976.42C1218.78 1020.71 1206.47 1043.83 1180.79 1067.51C1180.06 1074.53 1179.16 1081.52 1178.04 1088.41" fill="#17282F"/>
<path d="M1137.79 923.697C1128.89 919.744 1116.62 931.075 1107.81 931.847C1103.15 932.268 1099.7 930.431 1098.89 925.643C1096.71 912.924 1111.63 905.785 1123.51 903.505C1120.65 903.326 1117.81 903.508 1114.98 903.69C1110.41 903.989 1105.86 904.281 1101.33 903.056C1096.89 901.825 1094.45 898.78 1095.51 894.177C1098.79 879.872 1117.7 881.979 1128.91 887.081C1125.35 880.745 1114.89 863.138 1125.48 862.117C1136.19 861.125 1147.21 884.387 1150.78 892.02C1156.03 903.241 1161.25 918.742 1156.32 929.913C1150.6 942.978 1143.23 929.653 1137.79 923.697" fill="#FA7C41"/>
<path d="M1150.66 935.461C1146.24 935.461 1141.55 927.816 1137.79 923.696C1136.48 923.112 1135.09 922.861 1133.65 922.861C1125.34 922.861 1115.32 931.188 1107.81 931.847C1107.39 931.888 1106.97 931.907 1106.56 931.907C1102.54 931.907 1099.63 929.992 1098.89 925.643C1098.75 924.798 1098.68 923.979 1098.68 923.181C1098.68 911.998 1112.42 905.634 1123.51 903.505C1122.69 903.455 1121.87 903.433 1121.05 903.433C1119.02 903.433 1117 903.561 1114.98 903.69C1112.97 903.822 1110.96 903.951 1108.96 903.951C1106.41 903.951 1103.87 903.74 1101.33 903.056C1097.58 902.017 1095.26 899.687 1095.27 896.221C1095.27 895.577 1095.35 894.896 1095.51 894.177C1097.37 886.061 1104.27 883.229 1111.93 883.229C1117.77 883.229 1124.06 884.874 1128.91 887.081C1126.89 883.486 1122.65 876.265 1121.29 870.503L1138.36 870.491C1144.02 877.677 1148.68 887.539 1150.78 892.02C1154.54 900.064 1158.29 910.305 1158.3 919.574C1158.3 923.238 1157.72 926.748 1156.32 929.913C1155.31 932.205 1154.26 933.687 1153.17 934.535C1152.48 935.081 1151.77 935.367 1151.05 935.439C1150.93 935.455 1150.79 935.461 1150.66 935.461ZM1138.35 870.472C1134.39 870.469 1130.23 870.466 1125.91 870.462H1138.34C1138.34 870.466 1138.34 870.469 1138.35 870.472" fill="#F95B12"/>
<path d="M1139.28 927.083C1130.56 916.564 1105.5 913.456 1105.73 908.332C1106.2 897.911 1126.26 900.332 1136.09 903.685C1128.67 897.227 1114.09 885.601 1118.59 877.607C1124.09 867.845 1144.38 888.376 1152.16 903.896C1161.97 923.447 1156.26 934.948 1152.56 936.012C1147.48 937.466 1140.72 928.819 1139.28 927.083Z" fill="#FA7C41"/>
<path d="M1210.59 1101.74L1232.41 1268.44H1099.64C1102.38 1253.67 1127.09 1101.55 1127.09 1101.55L1210.59 1101.74" fill="#FA7C41"/>
<path d="M1190.35 870.462H618.027V58.307H1252.49V808.258L1190.35 870.462" fill="white"/>
<path d="M1190.36 870.461L1252.44 808.256L1252.05 58.3056C1254.82 59.2601 617.416 58.8864 618.028 59.0874L618.81 58.3056L618.37 870.457C617.095 869.964 821.353 870.137 986.1 870.313C1097.33 870.429 1190.54 870.548 1190.36 870.461M1190.36 870.461L617.686 870.803L617.246 58.3056V57.5207L618.028 57.5238C618.191 57.4453 786.037 57.5646 949.089 57.6871C1103.07 57.8001 1252.78 57.9163 1252.93 57.8629L1252.54 808.256L1190.36 870.461" fill="#17282F"/>
<path d="M1252.49 80.9336H618.027V58.3056H1252.49V80.9336Z" fill="#F95B12"/>
<path d="M634.649 69.618C634.649 71.731 632.937 73.4453 630.824 73.4453C628.711 73.4453 626.997 71.731 626.997 69.618C626.997 67.505 628.711 65.7939 630.824 65.7939C632.937 65.7939 634.649 67.505 634.649 69.618Z" fill="#BEBFBD"/>
<path d="M650.272 69.618C650.272 71.731 648.56 73.4453 646.447 73.4453C644.334 73.4453 642.62 71.731 642.62 69.618C642.62 67.505 644.334 65.7939 646.447 65.7939C648.56 65.7939 650.272 67.505 650.272 69.618Z" fill="white"/>
<path d="M665.896 69.618C665.896 71.731 664.185 73.4453 662.072 73.4453C659.958 73.4453 658.244 71.731 658.244 69.618C658.244 67.505 659.958 65.7939 662.072 65.7939C664.185 65.7939 665.896 67.505 665.896 69.618Z" fill="#33535F"/>
<path d="M865.456 143.87L862.03 134.78L858.611 143.87H865.456ZM867.189 148.52H856.916L854.847 154.014C854.467 154.947 853.578 155.493 852.649 155.493C852.354 155.493 852.099 155.452 851.848 155.368C850.617 154.903 850.027 153.55 850.451 152.325L859.792 127.43C860.172 126.498 861.101 125.904 862.03 125.948C863.007 125.904 863.892 126.498 864.272 127.43L873.613 152.325C874.036 153.55 873.443 154.903 872.219 155.368C872.008 155.452 871.713 155.493 871.418 155.493C870.489 155.493 869.6 154.947 869.258 154.014L867.189 148.52" fill="#17282F"/>
<path d="M893.074 134.994C893.074 132.542 891.131 130.598 888.719 130.598H883.523V139.305H888.719C891.131 139.305 893.074 137.361 893.074 134.994ZM898.989 151.986C899.413 153.214 898.738 154.523 897.514 154.947C897.344 154.985 897.005 155.069 896.581 155.069H896.54C896.116 155.069 895.482 154.985 894.892 154.605C894.342 154.269 893.875 153.719 893.539 153.129C892.945 151.901 892.65 150.379 892.65 148.055C892.609 147.251 892.44 146.702 892.145 146.237C891.89 145.773 891.385 145.349 890.873 145.013C889.991 144.419 888.889 144.08 888.509 143.996H883.523V153.17C883.523 154.438 882.462 155.493 881.156 155.493C879.843 155.493 878.829 154.438 878.829 153.17V128.231C878.829 126.922 879.843 125.904 881.156 125.904H881.196H888.719C893.752 125.904 897.765 129.964 897.765 134.994C897.765 137.782 896.499 140.234 894.468 141.926C895.018 142.347 895.523 142.856 895.947 143.49C896.795 144.715 897.344 146.278 897.344 148.055C897.3 149.324 897.429 150.127 897.514 150.548C898.189 150.758 898.738 151.267 898.989 151.986" fill="#17282F"/>
<path d="M923.1 130.598H916.378V153.17C916.378 154.482 915.364 155.493 914.051 155.493C912.786 155.493 911.728 154.482 911.728 153.17V130.598H905.053C903.741 130.598 902.727 129.499 902.727 128.231C902.727 126.922 903.741 125.904 905.053 125.904H923.1C924.369 125.904 925.424 126.922 925.424 128.231C925.424 129.499 924.369 130.598 923.1 130.598Z" fill="#17282F"/>
<path d="M932.711 128.231C932.711 126.922 933.725 125.904 935.037 125.904C936.303 125.904 937.402 126.922 937.402 128.231V153.17C937.402 154.482 936.303 155.493 935.037 155.493C933.725 155.493 932.711 154.482 932.711 153.17V128.231Z" fill="#17282F"/>
<path d="M944.005 140.275C944.046 131.908 951.063 125.104 959.515 125.06C963.233 125.06 966.617 126.284 969.28 128.357C970.291 129.201 970.463 130.683 969.703 131.738C968.856 132.796 967.295 132.963 966.319 132.203C964.463 130.683 962.134 129.879 959.515 129.879C956.598 129.879 953.892 131.063 951.908 132.925C950.002 134.865 948.821 137.402 948.821 140.275C948.821 143.151 950.002 145.773 951.908 147.631C953.892 149.49 956.598 150.677 959.515 150.677C962.134 150.677 964.416 149.873 966.319 148.35C967.295 147.631 968.856 147.801 969.703 148.815C970.463 149.873 970.291 151.393 969.28 152.196C966.617 154.269 963.233 155.493 959.515 155.493C951.063 155.493 944.046 148.689 944.005 140.275" fill="#17282F"/>
<path d="M977.921 153.17V128.231C977.921 126.962 978.935 125.904 980.247 125.904C981.554 125.904 982.612 126.962 982.612 128.231V150.802H994.068C995.293 150.802 996.392 151.861 996.392 153.17C996.392 154.438 995.293 155.493 994.068 155.493H980.373H980.288H980.247C978.935 155.493 977.921 154.438 977.921 153.17Z" fill="#17282F"/>
<path d="M1001.73 153.17V128.231C1001.73 126.922 1002.75 125.904 1004.06 125.904H1004.1H1004.19H1017.88C1019.11 125.904 1020.2 126.922 1020.2 128.231C1020.2 129.543 1019.11 130.598 1017.88 130.598H1006.42V138.335H1016.27C1017.54 138.335 1018.6 139.43 1018.6 140.658C1018.6 141.967 1017.54 143.025 1016.27 143.025H1006.42V150.802H1017.88C1019.11 150.802 1020.2 151.861 1020.2 153.17C1020.2 154.438 1019.11 155.493 1017.88 155.493H1004.19L1004.1 155.452L1004.06 155.493C1002.75 155.493 1001.73 154.438 1001.73 153.17Z" fill="#17282F"/>
<path d="M1046.63 140.72C1100.62 138.61 1155 138.61 1208.99 140.72C1154.99 142.83 1100.62 142.83 1046.63 140.72Z" fill="#17282F"/>
<path d="M661.527 140.72C715.509 138.61 769.885 138.61 823.882 140.72C769.882 142.83 715.512 142.83 661.527 140.72Z" fill="#17282F"/>
<path d="M1208.99 205.778H661.527V172.023H1208.99V205.778Z" fill="#F95B12"/>
<path d="M1123.2 239.37C1150.87 238.343 1181.32 238.337 1208.99 239.37C1181.32 240.409 1150.87 240.399 1123.2 239.37" fill="#17282F"/>
<path d="M1020.2 239.371C1045.05 238.319 1069.91 238.307 1094.77 239.371C1069.91 240.439 1045.05 240.426 1020.2 239.371" fill="#17282F"/>
<path d="M888.298 239.37C923.161 238.343 961.529 238.337 996.392 239.37C961.529 240.409 923.161 240.399 888.298 239.37" fill="#17282F"/>
<path d="M1157.5 263.906C1174.66 262.851 1191.83 262.842 1208.99 263.906C1191.83 264.971 1174.66 264.961 1157.5 263.906" fill="#17282F"/>
<path d="M1052.5 263.907C1082.32 262.88 1115.15 262.871 1144.97 263.907C1115.15 264.943 1082.32 264.934 1052.5 263.907" fill="#17282F"/>
<path d="M888.298 263.907C937.152 262.88 990.901 262.871 1039.76 263.907C990.901 264.943 937.155 264.934 888.298 263.907Z" fill="#17282F"/>
<path d="M1048.64 288.443C1100.37 287.417 1157.26 287.407 1208.99 288.443C1157.26 289.479 1100.37 289.47 1048.64 288.443Z" fill="#17282F"/>
<path d="M888.298 288.443C932.191 287.417 980.483 287.407 1024.38 288.443C980.486 289.479 932.191 289.47 888.298 288.443Z" fill="#17282F"/>
<path d="M1102.86 312.98C1137.09 311.954 1174.76 311.944 1208.99 312.98C1174.76 314.016 1137.09 314.007 1102.86 312.98Z" fill="#17282F"/>
<path d="M984.183 312.98C1016.62 311.954 1052.32 311.944 1084.76 312.98C1052.32 314.016 1016.62 314.007 984.183 312.98Z" fill="#17282F"/>
<path d="M888.298 312.98C914.279 311.954 942.888 311.944 968.869 312.98C942.888 314.016 914.279 314.007 888.298 312.98Z" fill="#17282F"/>
<path d="M888.298 337.516C958.028 336.49 1034.73 336.48 1104.46 337.516C1034.73 338.552 958.028 338.546 888.298 337.516" fill="#17282F"/>
<path d="M1142.19 386.59C1164.45 385.535 1186.73 385.526 1208.99 386.59C1186.73 387.654 1164.45 387.645 1142.19 386.59Z" fill="#17282F"/>
<path d="M1011.68 386.589C1046.7 385.562 1085.24 385.553 1120.26 386.589C1085.24 387.625 1046.7 387.615 1011.68 386.589Z" fill="#17282F"/>
<path d="M888.298 386.589C921.805 385.562 958.681 385.553 992.185 386.589C958.681 387.625 921.805 387.615 888.298 386.589Z" fill="#17282F"/>
<path d="M1065.97 411.126C1112.1 410.097 1162.86 410.09 1208.99 411.123C1162.86 412.159 1112.1 412.153 1065.97 411.126Z" fill="#17282F"/>
<path d="M956.338 411.126C986.106 410.097 1018.87 410.09 1048.64 411.123C1018.87 412.159 986.106 412.153 956.338 411.126" fill="#17282F"/>
<path d="M888.298 411.124C907.262 410.069 926.238 410.059 945.202 411.12C926.238 412.188 907.262 412.179 888.298 411.124" fill="#17282F"/>
<path d="M1133.83 435.659C1158.88 434.604 1183.94 434.595 1208.99 435.659C1183.94 436.724 1158.88 436.714 1133.83 435.659Z" fill="#17282F"/>
<path d="M1024.38 435.659C1053.62 434.632 1085.8 434.623 1115.04 435.659C1085.8 436.695 1053.62 436.686 1024.38 435.659Z" fill="#17282F"/>
<path d="M888.298 435.659C927.532 434.632 970.703 434.623 1009.94 435.659C970.703 436.695 927.532 436.686 888.298 435.659Z" fill="#17282F"/>
<path d="M1089.63 460.197C1128.13 459.17 1170.49 459.161 1208.99 460.197C1170.49 461.233 1128.13 461.224 1089.63 460.197Z" fill="#17282F"/>
<path d="M988.358 460.197C1015.63 459.17 1045.66 459.161 1072.93 460.197C1045.66 461.233 1015.63 461.224 988.358 460.197Z" fill="#17282F"/>
<path d="M859.588 460.197C897.754 459.17 939.751 459.161 977.921 460.197C939.754 461.233 897.754 461.224 859.588 460.197Z" fill="#17282F"/>
<path d="M774.668 460.195C797.17 459.14 819.682 459.13 842.185 460.195C819.682 461.259 797.17 461.249 774.668 460.195Z" fill="#17282F"/>
<path d="M662.073 460.197C694.117 459.17 729.389 459.161 761.436 460.197C729.389 461.233 694.117 461.224 662.073 460.197Z" fill="#17282F"/>
<path d="M933.367 484.732C981.753 483.706 1034.98 483.696 1083.37 484.732C1034.98 485.768 981.753 485.759 933.367 484.732Z" fill="#17282F"/>
<path d="M826.523 484.732C858.288 483.706 893.252 483.696 925.017 484.732C893.252 485.768 858.288 485.759 826.523 484.732Z" fill="#17282F"/>
<path d="M743.693 484.735C768.516 483.68 793.348 483.67 818.171 484.735C793.348 485.799 768.516 485.789 743.693 484.735Z" fill="#17282F"/>
<path d="M662.073 484.735C685.565 483.68 709.065 483.67 732.56 484.735C709.065 485.799 685.565 485.789 662.073 484.735Z" fill="#17282F"/>
<path d="M1133.83 533.803C1158.88 532.748 1183.94 532.739 1208.99 533.803C1183.94 534.867 1158.88 534.858 1133.83 533.803Z" fill="#17282F"/>
<path d="M1039.76 533.804C1066.67 532.777 1096.29 532.767 1123.2 533.804C1096.29 534.84 1066.67 534.83 1039.76 533.804Z" fill="#17282F"/>
<path d="M940.242 533.804C967.376 532.777 997.247 532.767 1024.38 533.804C997.247 534.84 967.376 534.83 940.242 533.804Z" fill="#17282F"/>
<path d="M879.773 533.804C894.85 532.737 909.94 532.727 925.017 533.804C909.94 534.881 894.85 534.872 879.773 533.804Z" fill="#17282F"/>
<path d="M778.858 533.804C806.519 532.777 836.971 532.767 864.632 533.804C836.971 534.84 806.519 534.83 778.858 533.804Z" fill="#17282F"/>
<path d="M662.073 533.804C695.75 532.777 732.814 532.767 766.491 533.804C732.814 534.84 695.75 534.83 662.073 533.804Z" fill="#17282F"/>
<path d="M1089.63 558.34C1128.13 557.313 1170.49 557.304 1208.99 558.34C1170.49 559.376 1128.13 559.366 1089.63 558.34Z" fill="#17282F"/>
<path d="M1002.49 558.34C1027.36 557.285 1052.24 557.276 1077.11 558.34C1052.24 559.404 1027.36 559.395 1002.49 558.34Z" fill="#17282F"/>
<path d="M910.05 558.34C936.153 557.285 962.257 557.276 988.358 558.34C962.257 559.404 936.153 559.395 910.05 558.34Z" fill="#17282F"/>
<path d="M747.174 558.34C794.662 557.313 846.904 557.304 894.389 558.34C846.904 559.376 794.662 559.366 747.174 558.34Z" fill="#17282F"/>
<path d="M662.073 558.34C685.565 557.285 709.065 557.276 732.56 558.34C709.065 559.404 685.565 559.395 662.073 558.34Z" fill="#17282F"/>
<path d="M845.838 582.879C888.441 581.85 935.317 581.843 977.92 582.876C935.317 583.912 888.441 583.906 845.838 582.879Z" fill="#17282F"/>
<path d="M774.668 582.879C794.21 581.824 813.761 581.814 833.299 582.875C813.761 583.943 794.21 583.933 774.668 582.879Z" fill="#17282F"/>
<path d="M662.073 582.879C693.392 581.85 727.863 581.843 759.182 582.876C727.863 583.912 693.392 583.906 662.073 582.879Z" fill="#17282F"/>
<path d="M828.611 607.412C857.035 606.385 888.326 606.376 916.75 607.412C888.326 608.448 857.035 608.439 828.611 607.412Z" fill="#17282F"/>
<path d="M738.296 607.41C764.224 606.355 790.158 606.346 816.082 607.41C790.158 608.475 764.224 608.465 738.296 607.41Z" fill="#17282F"/>
<path d="M662.073 607.41C683.825 606.355 705.587 606.346 727.339 607.41C705.587 608.475 683.825 608.465 662.073 607.41Z" fill="#17282F"/>
<path d="M864.631 656.487C901.171 655.461 941.378 655.451 977.918 656.487C941.378 657.523 901.171 657.514 864.631 656.487Z" fill="#17282F"/>
<path d="M768.576 656.487C795.336 655.461 824.799 655.451 851.559 656.487C824.799 657.523 795.336 657.514 768.576 656.487Z" fill="#17282F"/>
<path d="M662.073 656.487C692.042 655.461 725.034 655.451 755.006 656.487C725.034 657.523 692.042 657.514 662.073 656.487Z" fill="#17282F"/>
<path d="M911.881 681.02C933.89 679.965 955.909 679.955 977.922 681.02C955.909 682.084 933.89 682.075 911.881 681.02Z" fill="#17282F"/>
<path d="M818.172 681.018C843.591 679.992 871.582 679.982 897.001 681.018C871.582 682.054 843.591 682.048 818.172 681.018Z" fill="#17282F"/>
<path d="M727.338 681.02C752.886 679.965 778.437 679.955 803.985 681.02C778.437 682.084 752.886 682.075 727.338 681.02Z" fill="#17282F"/>
<path d="M662.073 681.02C679.47 679.965 696.883 679.955 714.28 681.02C696.883 682.084 679.47 682.075 662.073 681.02Z" fill="#17282F"/>
<path d="M851.559 705.555C892.315 704.528 937.16 704.518 977.92 705.555C937.16 706.591 892.315 706.581 851.559 705.555Z" fill="#17282F"/>
<path d="M765.66 705.557C789.601 704.502 813.547 704.492 837.488 705.557C813.547 706.621 789.601 706.612 765.66 705.557Z" fill="#17282F"/>
<path d="M662.073 705.555C691.2 704.528 723.266 704.518 752.397 705.555C723.266 706.591 691.2 706.581 662.073 705.555Z" fill="#17282F"/>
<path d="M662.073 730.094C717.307 729.067 778.067 729.058 833.301 730.094C778.067 731.13 717.307 731.12 662.073 730.094Z" fill="#17282F"/>
<path d="M1044.74 779.164C1097.72 778.137 1156.01 778.128 1208.99 779.164C1156.01 780.2 1097.72 780.191 1044.74 779.164Z" fill="#17282F"/>
<path d="M945.2 779.164C973.426 778.137 1004.5 778.128 1032.73 779.164C1004.5 780.2 973.426 780.191 945.2 779.164" fill="#17282F"/>
<path d="M888.298 779.164C903.318 778.097 918.348 778.087 933.369 779.164C918.348 780.244 903.318 780.235 888.298 779.164Z" fill="#17282F"/>
<path d="M768.576 779.164C803.148 778.137 841.198 778.128 875.769 779.164C841.198 780.2 803.151 780.191 768.576 779.164Z" fill="#17282F"/>
<path d="M662.073 779.164C692.042 778.137 725.034 778.128 755.006 779.164C725.034 780.2 692.042 780.191 662.073 779.164Z" fill="#17282F"/>
<path d="M1092.76 803.701C1130.25 802.674 1171.5 802.665 1208.99 803.701C1171.5 804.737 1130.25 804.728 1092.76 803.701Z" fill="#17282F"/>
<path d="M998.138 803.701C1023.6 802.674 1051.64 802.665 1077.1 803.701C1051.64 804.737 1023.6 804.728 998.138 803.701Z" fill="#17282F"/>
<path d="M914.741 803.7C938.581 802.645 962.43 802.636 986.27 803.7C962.43 804.765 938.581 804.755 914.741 803.7Z" fill="#17282F"/>
<path d="M803.983 803.701C835.723 802.674 870.655 802.665 902.395 803.701C870.655 804.737 835.723 804.728 803.983 803.701Z" fill="#17282F"/>
<path d="M725.087 803.7C747.464 802.645 769.85 802.636 792.23 803.7C769.85 804.765 747.464 804.755 725.087 803.7Z" fill="#17282F"/>
<path d="M662.073 803.7C678.629 802.645 695.197 802.636 711.753 803.7C695.197 804.765 678.629 804.755 662.073 803.7Z" fill="#17282F"/>
<path d="M940.242 828.238C969.398 827.211 1001.49 827.202 1030.64 828.238C1001.49 829.274 969.398 829.265 940.242 828.238Z" fill="#17282F"/>
<path d="M857.585 828.238C880.059 827.184 902.543 827.174 925.017 828.238C902.543 829.303 880.059 829.293 857.585 828.238Z" fill="#17282F"/>
<path d="M765.66 828.238C791.516 827.211 819.984 827.202 845.839 828.238C819.987 829.274 791.516 829.265 765.66 828.238Z" fill="#17282F"/>
<path d="M662.073 828.238C690.359 827.211 721.499 827.202 749.784 828.238C721.499 829.274 690.359 829.265 662.073 828.238Z" fill="#17282F"/>
<path d="M661.527 435.661H861.339V235.847H661.527V435.661Z" fill="#E7E8E5"/>
<path d="M671.308 425.881H851.56V245.63H671.308V425.881Z" fill="#FA7C41"/>
<path d="M717.023 308.961C706.549 308.961 698.289 299.485 700.345 288.638C701.614 281.947 707.008 276.553 713.699 275.284C714.826 275.071 715.937 274.967 717.023 274.967C727.501 274.967 735.761 284.443 733.705 295.291C732.436 301.981 727.042 307.379 720.352 308.647C719.224 308.86 718.113 308.961 717.023 308.961" fill="#F95B12"/>
<path d="M851.56 379.096H778.86L746.675 350.628L786.424 306.053L851.56 379.096" fill="#FB9D71"/>
<path d="M671.308 379.096H778.859L725.085 331.532L671.308 379.096Z" fill="#FA7C41"/>
<path d="M778.859 379.096H671.308L725.085 331.532L778.859 379.096Z" fill="#F95B12"/>
<path d="M671.308 425.881H851.56V379.097H671.308V425.881Z" fill="#FA7C41"/>
<path d="M671.308 425.881H851.56V379.097H671.308V425.881Z" fill="#F95B12"/>
<path d="M998.138 730.964H1210.78V581.114H998.138V730.964" fill="#E7E8E5"/>
<path d="M1005.47 723.625H1203.44V588.451H1005.47V723.625Z" fill="#33535F"/>
<path d="M1027.25 620.705C1025.54 629.684 1033.27 637.411 1042.25 635.71C1047.27 634.758 1051.31 630.711 1052.27 625.694C1053.97 616.714 1046.24 608.987 1037.26 610.689C1032.24 611.64 1028.2 615.688 1027.25 620.705Z" fill="#273E47"/>
<path d="M1042.95 688.542H1203.44L1123.2 633.763L1042.95 688.542Z" fill="#273E47"/>
<path d="M1005.47 688.542H1115.04L1060.26 652.872L1005.47 688.542Z" fill="#17282F"/>
<path d="M1203.44 723.625H1005.47V688.542H1203.44V723.625Z" fill="#17282F"/>
<path d="M648.348 464.382C648.348 481.129 634.771 494.702 618.027 494.702C601.28 494.702 587.707 481.129 587.707 464.382C587.707 447.638 601.28 434.062 618.027 434.062C634.771 434.062 648.348 447.638 648.348 464.382Z" fill="#33535F"/>
<path d="M622.8 473.382C623.739 474.362 623.739 475.828 622.8 476.77C622.307 477.222 621.745 477.448 621.139 477.448C620.499 477.448 619.899 477.222 619.409 476.77L608.825 466.039L608.64 465.812L608.527 465.737L608.414 465.436L608.301 465.285L608.225 465.059L608.15 464.871V464.607L608.112 464.381L608.15 464.192V463.929L608.225 463.778L608.301 463.476L608.338 463.401L608.527 463.062L608.602 462.987L608.825 462.723L619.409 451.995C620.348 451.087 621.896 451.087 622.8 451.995C623.739 452.933 623.739 454.44 622.8 455.382L613.874 464.381L622.8 473.382" fill="white"/>
<path d="M1222.17 464.382C1222.17 447.638 1235.74 434.062 1252.49 434.062C1269.23 434.062 1282.81 447.638 1282.81 464.382C1282.81 481.129 1269.23 494.702 1252.49 494.702C1235.74 494.702 1222.17 481.129 1222.17 464.382Z" fill="#33535F"/>
<path d="M1247.72 455.382C1246.78 454.403 1246.78 452.933 1247.72 451.991C1248.21 451.539 1248.77 451.313 1249.37 451.313C1250.02 451.313 1250.62 451.539 1251.11 451.991L1261.69 462.723L1261.88 462.949L1261.99 463.024L1262.1 463.326L1262.22 463.476L1262.29 463.703L1262.37 463.891V464.155L1262.4 464.381L1262.37 464.569V464.833L1262.29 464.984L1262.22 465.285L1262.18 465.36L1261.99 465.699L1261.92 465.775L1261.69 466.039L1251.11 476.77C1250.17 477.674 1248.62 477.674 1247.72 476.77C1246.78 475.828 1246.78 474.324 1247.72 473.382L1256.64 464.381L1247.72 455.382" fill="white"/>
<path d="M1190.35 870.462L1252.56 808.258H1190.35V870.462Z" fill="#E7E8E5"/>
<path d="M356.308 741.418C384.236 898.759 448.858 1088.92 478.902 1120.76C516.899 1161.04 763.533 1231.58 776.642 1233.67C809.11 1238.6 896.714 1036.54 862.224 1029.79C809.716 1019.49 621.47 982.727 610.535 970.316C599.197 957.343 523.163 850.928 445.489 731.098C391.891 648.294 338.977 643.791 356.308 741.418" fill="#F26162"/>
<path d="M758.917 1229.38C762.414 1230.77 812.038 1250.37 842.16 1256.23C864.631 1260.61 929.661 1271.46 936.933 1247.2C941.915 1230.66 904.427 1219.78 878.091 1211.48C864.217 1207.12 846.474 1194.6 849.642 1185.65C855.177 1170 890.964 1182 914.788 1193.11C960.857 1214.61 1023.3 1255.14 1048.04 1230.52C1057.38 1221.21 1044.27 1206.98 1025.75 1193.54C1055.18 1208.5 1086.2 1220.15 1096.98 1210.22C1103.18 1204.57 1102.86 1197.59 1098.44 1190C1107.3 1192.02 1114.85 1190.79 1119.65 1184.71C1127.85 1174.41 1122.18 1160.82 1110.97 1147.37C1114.12 1146.75 1116.83 1144.88 1118.71 1141.23C1135.26 1110.26 1031.7 1034.95 997.793 1030.08C898.025 1015.66 795.495 1029.25 795.495 1029.25C759.89 1063.37 758.832 1229.32 758.917 1229.38" fill="#F26162"/>
<path d="M894.442 1126.52C917.77 1128.05 941.186 1134.61 961.852 1145.73C988.084 1159.84 1006.23 1177.49 1028.75 1194.88C1029.34 1195.34 1028.65 1196.28 1028.05 1195.82C1017.33 1187.55 973.205 1156.82 961.902 1149.95C941.189 1137.37 918.586 1129.25 894.392 1126.93L894.442 1126.52" fill="#17282F"/>
<path d="M908.91 1083.44C935.212 1088.14 962.157 1092.87 987.077 1102.87C1014.35 1113.8 1036.71 1133.63 1058.65 1152.67C1071.82 1164.1 1084.76 1175.81 1097.4 1187.84C1097.93 1188.34 1097.28 1189.27 1096.71 1188.77C1074.41 1169.07 1051.53 1150.01 1028.06 1131.7C1005.99 1114.49 981.978 1101.95 955.008 1094.37C939.814 1090.09 924.323 1086.99 908.854 1083.9C908.565 1083.84 908.615 1083.38 908.91 1083.44Z" fill="#17282F"/>
<path d="M933.068 1044.73C958.471 1047.6 980.625 1050.02 1003.92 1061.39C1034.75 1076.45 1065.66 1103.72 1076.52 1113.4C1088.51 1124.09 1100.13 1135.17 1111.58 1146.43C1112.05 1146.89 1111.26 1147.71 1110.78 1147.26C1084.71 1122.73 1056.93 1099.71 1027.9 1078.76C1014.04 1068.75 999.178 1060.28 982.87 1054.93C966.748 1049.64 949.777 1047.35 933.046 1044.9L933.068 1044.73" fill="#17282F"/>
<path d="M821.649 998.197L727.513 1251.49C727.513 1251.49 510.706 1177.69 472.687 1132.32C434.665 1086.95 371.692 859.406 355.303 749.83C338.913 640.25 393.642 645.679 440.631 716.605C487.62 787.531 604.835 959.597 611.67 963.55C618.505 967.503 821.649 998.197 821.649 998.197" fill="#FA7C41"/>
<path d="M708.404 1132.84C719.045 1104.57 729.914 1076.37 739.506 1047.69C744.954 1031.4 750.495 1015.12 755.789 998.77C755.987 998.156 754.957 997.716 754.699 998.321C742.894 1026.27 731.114 1054.32 720.593 1082.82C710.122 1111.16 699.415 1139.42 689.312 1167.92C683.569 1184.12 678.335 1200.44 673.582 1216.98C673.487 1217.31 674.009 1217.54 674.153 1217.22C686.91 1189.66 697.688 1161.31 708.404 1132.84" fill="#17282F"/>
<path d="M618.353 1210.55C615.16 1209.25 611.967 1207.95 608.773 1206.65C598.714 1202.49 588.547 1198.16 578.525 1193.74C591.718 1199.54 605.188 1205.2 618.346 1210.54C618.35 1210.55 618.35 1210.55 618.353 1210.55ZM554.167 1182.68C552.51 1181.92 550.88 1181.15 549.273 1180.36C550.896 1181.14 552.519 1181.91 554.167 1182.68ZM547.549 1179.54C544.61 1178.14 541.684 1176.71 538.842 1175.29C541.703 1176.71 544.601 1178.12 547.549 1179.54ZM538.277 1175.01C536.61 1174.21 535.021 1173.38 533.389 1172.58C532.795 1172.26 532.196 1171.99 531.602 1171.68C530.491 1171.1 529.398 1170.53 528.312 1169.96C531.555 1171.64 534.886 1173.33 538.277 1175.01ZM520.701 1165.94C515.973 1163.4 511.442 1160.86 507.144 1158.31C505.775 1157.52 504.368 1156.69 503.04 1155.86C508.491 1159.18 514.409 1162.54 520.701 1165.94M502.419 1155.47C492.82 1149.61 484.717 1143.88 478.714 1138.47C484.729 1143.88 492.827 1149.6 502.419 1155.47ZM462.798 1117.53C433.36 1065.68 394.428 935.264 371.216 832.112V832.074C394.431 935.227 433.37 1065.67 462.798 1117.53" fill="#E0E1DE"/>
<path d="M364.827 802.47C360.855 783.132 357.612 765.295 355.298 749.817C355.289 749.741 355.279 749.666 355.267 749.591C355.279 749.672 355.292 749.748 355.301 749.829C357.615 765.299 360.858 783.113 364.827 802.438V802.47" fill="#CCCDCB"/>
<path d="M371.218 832.111C368.926 821.926 366.788 812.023 364.829 802.469V802.438C366.788 811.983 368.926 821.901 371.218 832.074V832.111Z" fill="#A7AAA9"/>
<path d="M354.806 746.392C354.791 746.275 354.772 746.159 354.756 746.043C354.753 746.018 354.75 745.993 354.75 745.965C354.769 746.109 354.788 746.247 354.806 746.392Z" fill="#CCCDCB"/>
<path d="M352.341 715.738C352.338 715.675 352.335 715.61 352.332 715.544L352.341 715.421C352.338 715.195 352.338 714.975 352.338 714.749C352.338 715.076 352.338 715.409 352.341 715.738ZM352.338 714.74C352.338 714.715 352.338 714.69 352.338 714.668C352.338 714.686 352.338 714.718 352.338 714.74Z" fill="#E0E1DE"/>
<path d="M618.347 1210.54C605.188 1205.2 591.719 1199.54 578.526 1193.74C570.623 1190.26 562.815 1186.72 555.217 1183.16C554.865 1183 554.516 1182.85 554.168 1182.68C552.52 1181.91 550.896 1181.14 549.273 1180.36C549.066 1180.26 548.859 1180.16 548.651 1180.07C548.284 1179.89 547.917 1179.71 547.549 1179.54C544.601 1178.13 541.703 1176.71 538.843 1175.29C538.692 1175.22 538.545 1175.15 538.397 1175.07C538.356 1175.05 538.319 1175.03 538.278 1175.01C534.887 1173.33 531.556 1171.64 528.312 1169.96C527.688 1169.63 527.066 1169.3 526.444 1168.97C524.498 1167.96 522.582 1166.95 520.702 1165.94C514.41 1162.54 508.491 1159.18 503.041 1155.86C503.025 1155.85 503.009 1155.84 502.994 1155.83C502.802 1155.71 502.611 1155.59 502.419 1155.48C492.827 1149.6 484.73 1143.88 478.714 1138.47C478.033 1137.85 477.377 1137.24 476.752 1136.63C476.014 1135.91 475.276 1135.17 474.62 1134.45C473.882 1133.72 473.267 1133 472.692 1132.32C469.552 1128.58 466.24 1123.59 462.799 1117.53C433.37 1065.67 394.431 935.228 371.216 832.076C368.924 821.903 366.786 811.985 364.827 802.44C360.858 783.115 357.615 765.3 355.301 749.831C355.292 749.749 355.279 749.674 355.267 749.592C355.116 748.515 354.962 747.441 354.805 746.393C354.786 746.248 354.767 746.11 354.749 745.966C354.723 745.714 354.698 745.485 354.673 745.228C353.631 736.958 352.843 726.766 352.34 715.74C352.337 715.41 352.337 715.077 352.337 714.75C352.337 714.747 352.337 714.744 352.337 714.741C352.337 714.719 352.337 714.688 352.337 714.669C352.271 680.458 362.855 665.133 378.406 665.133C387.157 665.133 397.477 669.981 408.366 679.052C478.906 851.988 585.449 1137.04 618.347 1210.54" fill="#F95B12"/>
<path d="M515.807 1267.6H0.258789C22.0283 1170.43 112.393 806.161 272.281 660.17L272.355 660.098C273.537 659.025 274.721 657.954 275.903 656.921C299.114 636.334 351.487 640.952 385.672 657.916C387.299 658.729 389.405 660.579 391.92 663.313C405.631 678.431 430.467 720.563 444.291 763.659L444.328 763.731C446.768 771.345 448.837 778.959 450.463 786.5C450.796 787.979 451.129 789.715 451.496 791.747V791.784C451.829 793.301 452.127 795 452.457 796.849C452.903 799.436 453.383 802.281 453.901 805.423C467.798 889.248 503.095 1162.45 515.807 1267.6" fill="#FA7C41"/>
<path d="M354.466 787.788L378.833 750.67L404.171 780.429L397.769 808.567L369.075 813.245L354.466 787.788" fill="#17282F"/>
<path d="M369.074 813.245L366.207 1137.64L408.223 1238.52L446.308 1129.35L397.767 808.567L369.074 813.245" fill="#17282F"/>
<path d="M214.342 747.173C134.963 920.087 81.1351 1206.88 130.3 1250.48C185.061 1299.04 288.209 1095.45 283.754 1085.27C280.385 1077.58 282.858 892.568 286.581 757.308C290.299 622.178 233.972 704.417 214.342 747.173Z" fill="#F26162"/>
<path d="M284.997 1085.04C284.028 1065.71 289.874 820.802 289.186 744.281C288.496 667.759 258.689 654.817 212.883 741.763C167.075 828.711 99.5967 1047.62 105.395 1170.19C110.981 1288.27 165.921 1279.92 220.254 1204.83C264.736 1143.36 284.997 1085.04 284.997 1085.04Z" fill="#FA7C41"/>
<path d="M284.375 1116.65C281.448 1025.08 282.786 933.391 288.484 841.95C291.446 933.52 290.04 1025.21 284.375 1116.65" fill="#17282F"/>
<path d="M288.621 895.114C289.901 883.045 293.01 871.441 296.678 859.924C296.189 872.069 293.034 883.836 288.621 895.114Z" fill="#17282F"/>
<path d="M144.134 1252.94C188.877 1283.98 282.623 1267 495.726 1232.46C525.214 1227.68 533.355 1005.36 501.603 1008.85C461.61 1013.24 307.352 1038.95 296.308 1042.25C203.167 1070.12 113.784 1231.89 144.134 1252.94Z" fill="#F8A58D"/>
<path d="M541.647 995.645C603.632 983.783 621.365 990.251 668.363 952.458C699.202 927.657 728.269 936.706 711.874 974.458C685.057 1036.2 608.301 1068.3 578.483 1071.77L541.647 995.645Z" fill="#F8A58D"/>
<path d="M405.54 1048.78C405.54 1048.78 447.044 1021.65 511.848 1002.47C556.664 989.209 657.377 971.228 759.44 1066.32C783.647 1088.87 802.146 1138.18 749.23 1115.7C711.641 1099.73 692.627 1078.25 669.073 1072.95C669.073 1072.95 685.16 1138.46 661.619 1161.83C651.098 1172.27 621.713 1200.1 595.748 1218.51C595.748 1218.51 590.215 1213.93 584.036 1207.14C584.036 1207.14 562.548 1231.71 491.732 1233.2L405.54 1048.78" fill="#F8A58D"/>
<path d="M556.641 996.644C578.908 1006.85 625.737 1029.28 657.661 1060.95C693.121 1096.13 751.95 1173.46 725.712 1199.37C706.472 1218.36 681.413 1190.82 681.413 1190.82C681.413 1190.82 698.993 1227.9 677.859 1241.26C658.603 1253.44 640.497 1230.96 640.497 1230.96C640.497 1230.96 647.291 1255.29 626.481 1263.45C601.454 1273.26 591.319 1220.66 557.385 1208.68C549.765 1206 556.641 996.644 556.641 996.644" fill="#F8A58D"/>
<path d="M614.241 1092.22C633.607 1105.25 669.993 1146.15 681.701 1189.82C681.965 1190.81 681.362 1191.54 680.926 1190.69C657.823 1145.34 627.663 1107.74 613.908 1092.55L614.241 1092.22" fill="#17282F"/>
<path d="M579.771 1129.05C595.322 1142.01 630.942 1185.84 641.287 1230.5C641.52 1231.5 640.86 1232.19 640.465 1231.32C618.276 1182.94 592.242 1145.35 579.416 1129.36L579.771 1129.05" fill="#17282F"/>
<path d="M669.066 1072.53C689.713 1077.49 703.452 1086.8 721.226 1097.85C730.021 1103.32 738.922 1108.66 748.275 1113.12C756.793 1117.18 769.358 1123.33 777.826 1115.86C782.542 1111.71 782.109 1104.61 780.733 1099.05C779.186 1092.82 772.376 1081.51 768.376 1076.48L768.821 1076.11C772.501 1080.59 779.817 1090.76 782.093 1096.1C784.156 1100.94 785.864 1106.6 784.737 1111.89C782.316 1123.26 769.164 1125.4 759.638 1122.79C753.942 1121.23 748.485 1118.52 743.233 1115.86C738.156 1113.28 733.207 1110.46 728.335 1107.51C718.331 1101.47 708.689 1094.86 698.758 1088.7C687.845 1081.93 680.385 1078.73 668.796 1073.23C668.404 1073.04 668.658 1072.44 669.066 1072.53" fill="#17282F"/>
<path d="M715.302 1141.95C709.45 1130.61 678.489 1083.75 668.674 1073.04C668.426 1072.76 668.79 1072.37 669.073 1072.62C685.695 1086.84 713.205 1125.47 719.792 1137.96C726.301 1150.31 733.883 1166.12 734.599 1180.21C735.685 1201.47 721.789 1206.21 716.627 1207.52C710.47 1209.07 704.122 1208.08 698.389 1205.47C692.006 1202.56 685.651 1196.19 681.208 1190.89L681.607 1190.47C689.396 1198.47 702.056 1206.12 713.528 1204.01C718.508 1203.1 723.466 1200.56 726.313 1196.25C729.666 1191.19 729.626 1184.75 728.841 1178.96C727.07 1165.85 721.312 1153.59 715.302 1141.95Z" fill="#17282F"/>
<path d="M465.133 1005.03L365.299 1264.29C365.299 1264.29 176.509 1289.43 133.522 1254.29C105.227 1231.17 189.608 1062.35 294.633 1038.33L465.133 1005.03" fill="#FA7C41"/>
<path d="M187.677 1115.08C199.319 1097.31 234.23 1052.89 294.712 1038.13C295.245 1038 295.573 1038.82 295.045 1039C251.057 1054.36 200.998 1099.5 188.332 1115.65C188.001 1116.08 187.384 1115.53 187.677 1115.08" fill="#17282F"/>
<path d="M305.544 1250.03C314.996 1220.93 325.988 1192.37 337.065 1163.84C348.145 1135.29 359.172 1106.71 370.965 1078.44C377.627 1062.47 384.202 1046.44 391.42 1030.7C391.609 1030.29 392.343 1030.5 392.196 1030.95C382.773 1060 371.882 1088.64 361.018 1117.2C350.127 1145.82 338.924 1174.36 327.464 1202.76C320.987 1218.82 314.223 1234.75 307.009 1250.5C306.653 1251.28 305.266 1250.88 305.544 1250.03Z" fill="#17282F"/>
<path d="M464.488 1002.4C452.564 1002.93 440.897 1005.27 429.157 1007.39C417.43 1009.51 405.738 1011.83 394.074 1014.26C370.868 1019.09 321.148 1026.67 280.812 1042.17C280.365 1042.34 283.479 1043.64 283.913 1043.44C302.741 1035.08 450.966 1009.98 462.586 1006.47C462.426 1007.38 462.278 1008.28 462.247 1009.23C462.228 1009.88 463.06 1010.39 463.503 1009.76C464.557 1008.27 465.11 1006.69 466.049 1005.14C466.815 1003.86 466.033 1002.34 464.488 1002.4" fill="#17282F"/>
<path d="M170.343 1269.15C133.592 1263.16 117.275 1249.64 108.522 1212.86C97.3874 1163.88 104.124 1113.04 111.381 1064.02C124.797 985.651 146.27 908.929 170.513 833.296C161.927 867.792 149.542 914.734 141.625 948.737C124.895 1024.1 87.534 1170.04 121.909 1239.5C132.024 1258.65 150.707 1264.1 170.343 1269.15Z" fill="#17282F"/>
<path d="M159.921 840.3C158.55 852.432 156.438 864.118 157.744 876.335C153.166 864.831 155.386 851.478 159.921 840.3Z" fill="#17282F"/>
<path d="M379.74 750.313C349.103 752.96 304.935 700.244 290.253 660.624C289.262 657.902 297.01 631.974 304.937 600.018C309.671 580.608 314.484 558.881 317.445 538.743C318.035 534.605 439.257 588.005 439.257 588.005C439.257 588.005 420.629 628.398 415.684 663.544C415.301 666.486 415.191 669.258 415.335 671.933C415.323 672.32 415.367 672.797 415.316 673.331C415.568 689.409 409.351 747.732 379.74 750.313" fill="#F8A58D"/>
<path d="M325.135 540.41C325.989 575.321 335.075 660.702 402.253 672.14C406.931 672.941 411.273 673.343 415.279 673.34C415.395 672.781 415.32 672.348 415.323 671.93C415.213 669.236 415.282 666.495 415.637 663.563C420.607 628.357 439.26 587.974 439.26 587.974C439.26 587.974 351.816 549.453 325.135 540.41Z" fill="#17282F"/>
<path d="M336.627 380.284C312.832 421.198 306.215 553.983 330.897 589.729C366.684 641.553 440.162 662.953 487.952 616.532C534.276 571.54 539.836 398.337 510.875 364.322C468.222 314.215 371.779 319.841 336.627 380.284Z" fill="#F8A58D"/>
<path d="M443.764 491.193C443.707 490.851 443.041 491.589 443.038 491.953C442.919 500.91 441.274 511.152 433.048 513.758C432.793 513.837 432.796 514.289 433.101 514.26C443.038 513.315 445.085 499.698 443.764 491.193" fill="#17282F"/>
<path d="M436.189 481.492C421.853 479.753 419.426 508.56 432.713 510.17C445.787 511.756 448.208 482.949 436.189 481.492Z" fill="#17282F"/>
<path d="M493.684 495.666C493.781 495.33 494.347 496.146 494.306 496.508C493.273 505.409 493.587 515.776 501.408 519.418C501.65 519.531 501.59 519.977 501.295 519.908C491.559 517.694 491.279 503.927 493.684 495.666" fill="#17282F"/>
<path d="M502.439 487.017C516.881 487.136 515.585 516.012 502.203 515.902C489.032 515.798 490.332 486.916 502.439 487.017Z" fill="#17282F"/>
<path d="M426.716 462.411C430.766 462.129 434.455 461.196 438.433 460.506C442.917 459.724 446.571 459.564 450.009 456.28C451.852 454.518 451.887 450.772 450.348 448.823C446.757 444.28 441.023 443.871 435.582 444.59C429.68 445.372 425.331 447.482 421.253 451.812C417.3 456 421.375 462.779 426.716 462.411" fill="#17282F"/>
<path d="M518.507 472.267C514.511 471.541 510.95 470.204 507.072 469.077C502.699 467.802 499.085 467.24 496.033 463.598C494.397 461.645 494.774 457.921 496.523 456.15C500.592 452.031 506.338 452.26 511.663 453.576C517.443 455.001 521.534 457.582 525.107 462.336C528.57 466.935 523.776 473.224 518.507 472.267" fill="#17282F"/>
<path d="M418.222 569.949C420.034 572.341 421.72 575.516 424.891 576.269C427.934 576.991 431.755 576.147 434.744 575.475C435.039 575.409 435.277 575.748 435.058 575.987C432.248 579.038 427.092 580.439 423.095 579.101C419.193 577.798 417.73 574.034 417.309 570.222C417.252 569.688 417.959 569.6 418.222 569.949" fill="#17282F"/>
<path d="M431.522 544.836C435.321 553.269 441.974 558.566 449.625 561.281C453.038 562.518 456.721 563.197 460.398 563.41C461.114 563.501 461.839 563.529 462.505 563.486C463.164 563.504 463.757 563.517 464.489 563.479C465.547 563.482 466.244 562.716 466.564 561.765L466.574 561.699C466.614 561.373 466.649 561.112 466.624 560.779L466.636 560.713L466.737 559.934C467.949 553.146 468.847 542.675 468.847 542.675C471.151 544.302 482.994 551.925 483.33 548.333C486.005 518.581 488.985 485.492 485.368 455.325C485.302 454.321 483.779 454.321 483.717 455.306C480.012 483.796 481.34 512.751 478.074 541.429C474.253 539.278 468.071 535.432 464.495 534.964C463.484 535.099 463.117 555.231 462.326 558.236L462.219 558.553C450.545 558.289 442.432 553.529 432.47 544.167C431.886 543.561 431.095 544.054 431.522 544.836" fill="#17282F"/>
<path d="M456.897 559.349C456.897 559.349 449.622 566.596 440.9 568.294C437.688 568.932 434.341 568.869 431.035 567.431C424.243 564.508 425.044 557.993 427.179 552.637C428.919 548.228 431.625 544.615 431.625 544.615C431.625 544.615 440.495 555.836 456.897 559.349" fill="#17282F"/>
<path d="M440.9 568.294C437.688 568.932 434.341 568.869 431.035 567.431C424.243 564.508 425.044 557.993 427.179 552.637C434.639 554.555 441.371 560.831 440.9 568.294Z" fill="#F576B7"/>
<path d="M313.196 478.534C330.945 486.527 351.422 461.601 357.943 450.763C364.461 439.924 368.144 387.039 379.811 371.083C391.479 355.127 412.245 348.458 426.813 355.303C441.381 362.147 458.038 385.23 469.46 385.921C480.882 386.612 487.309 362.643 495.152 363.843C512.411 366.477 528.204 422.731 528.418 442.125C528.418 442.125 544.763 349.811 455.714 330.235C375.733 312.656 339.227 355.4 328.48 378.625C307.89 423.118 313.196 478.534 313.196 478.534" fill="#17282F"/>
<path d="M430.724 463.875C428.021 463.389 425.204 463.228 422.341 463.433C403.763 464.761 389.729 480.958 391.05 499.536C392.385 518.111 408.583 532.167 427.154 530.82C445.732 529.489 459.763 513.294 458.441 494.717C457.317 479.009 445.565 466.547 430.724 463.875ZM417.845 535.508C400.724 532.428 387.148 518.045 385.854 499.91C384.322 478.459 400.523 459.768 421.967 458.233C443.418 456.698 462.105 472.896 463.641 494.343V494.346C465.17 515.787 448.975 534.484 427.528 536.02C424.215 536.255 420.972 536.073 417.845 535.508" fill="#E7E8E5"/>
<path d="M516.136 468.405C515.489 468.289 514.833 468.208 514.171 468.17C507.985 467.79 501.901 470.829 497.037 476.719C491.992 482.854 488.896 491.272 488.334 500.431C487.201 519.021 496.896 534.807 510.051 535.599C523.157 536.399 534.742 521.925 535.882 503.338C536.441 494.179 534.397 485.448 530.127 478.741C526.466 472.989 521.552 469.382 516.136 468.405V468.405ZM507.194 540.496C492.513 537.856 481.894 520.421 483.135 500.113C483.756 489.869 487.27 480.38 493.022 473.407C498.959 466.189 506.588 462.481 514.488 462.964C522.419 463.432 529.502 468.054 534.529 475.941C539.383 483.567 541.712 493.41 541.084 503.652C539.769 525.109 525.706 541.777 509.737 540.804C508.874 540.751 508.033 540.647 507.194 540.496" fill="#E7E8E5"/>
<path d="M462.062 498.771L458.96 494.58C465.164 489.987 479.224 484.153 488.103 494.903L484.084 498.222C476.144 488.58 462.633 498.357 462.062 498.771" fill="#E7E8E5"/>
<path d="M297.427 500.434L292.952 497.765C294.202 495.677 305.464 477.338 317.199 476.16C328.166 475.09 388.122 483.642 391.067 484.107L390.261 489.256C370.38 486.142 326.191 480.496 317.72 481.347C309.973 482.123 300.449 495.388 297.427 500.434" fill="#E7E8E5"/>
<path d="M339.48 490.434C339.48 490.434 319.399 442.895 298.428 449.2C277.455 455.501 286.394 520.101 306.673 533.009C326.953 545.916 339.27 527.379 339.27 527.379L339.48 490.434Z" fill="#F8A58D"/>
<path d="M301.452 467.653C301.103 467.543 300.929 468.024 301.21 468.218C315.319 477.779 320.393 493.839 322.917 509.908C319.542 503.208 313.954 498.74 305.129 502.573C304.666 502.774 304.916 503.487 305.371 503.487C311.989 503.484 316.32 505.556 319.514 511.537C321.771 515.773 322.87 520.752 324.154 525.358C324.581 526.897 327.234 526.69 327.049 524.985L326.996 524.602C331.595 504.988 322.176 474.153 301.452 467.653" fill="#17282F"/>
<path d="M415.471 669.552L377.063 734.934L295.651 636.095L271.841 666.629C271.841 666.629 343.104 809.063 344.234 803.063L378.576 748.428L415.992 792.523L422.561 691.794L415.471 669.552" fill="#FA7C41"/>
<path d="M422.171 742.935C422.677 726.267 423.669 709.494 423.367 692.813C423.358 692.219 422.426 691.865 422.209 692.54C417.167 708.185 415.597 771.95 414.021 787.118L413.857 786.926C412.3 785.023 378.994 747.934 378.576 748.43C371.462 756.939 346.29 796.706 344.476 800.374C333.217 777.755 284.785 688.182 270.955 666.477C270.558 665.852 269.575 666.235 269.864 666.948C279.447 690.606 341.785 808.653 342.856 808.461C343.515 809.058 374.749 760.097 378.834 750.672C384.309 758.574 417.534 799.997 417.904 797.548C420.397 781.02 421.666 759.626 422.171 742.935" fill="#17282F"/>
<path d="M379.317 1248.36V1268.44H877.283V1248.36H379.317Z" fill="#33535F"/>
<path d="M379.317 1248.36V1268.44H654.856V1248.36H379.317Z" fill="#999B9B"/>
<path d="M646.498 1268.42H1082.93L1144.6 972.009H708.162L646.498 1268.42Z" fill="#999B9B"/>
<path d="M666.285 1268.42H1102.72L1164.38 972.009H727.952L666.285 1268.42Z" fill="#BEBFBD"/>
<path d="M886.248 1126.84C884.559 1142.9 896.213 1155.92 912.279 1155.92C928.342 1155.92 942.734 1142.9 944.424 1126.84C946.113 1110.77 934.458 1097.75 918.392 1097.75C902.329 1097.75 887.937 1110.77 886.248 1126.84" fill="#E7E8E5"/>
<path d="M40.2523 290.896C47.2407 357.696 107.09 406.211 173.892 399.225C200.89 396.4 224.887 384.94 243.472 367.828L304.322 376.758L273.877 324.152C281.263 306.18 284.375 286.18 282.222 265.586C275.236 198.782 215.385 150.271 148.582 157.257C81.7811 164.242 33.2652 224.092 40.2523 290.896Z" fill="white"/>
<path d="M65.1638 352.272C68.372 356.866 72.4941 360.693 76.2276 364.834C80.4637 368.47 84.4094 372.461 89.0734 375.56C97.9394 382.36 108.004 387.475 118.413 391.371C128.781 395.528 139.883 397.393 150.898 398.524C156.453 398.724 162.002 399.136 167.542 398.552C173.091 398.329 178.606 397.641 184.044 396.542C205.811 392.206 226.187 381.657 242.287 366.542L242.887 365.98L243.727 366.1L304.635 374.63L302.458 377.839L271.832 325.34L271.252 324.344L271.691 323.255C278.449 306.523 281.391 288.288 280.252 270.269C278.807 252.31 274.033 234.417 264.814 218.8C255.773 203.154 243.258 189.528 228.421 179.107C213.549 168.708 196.151 162.021 178.188 159.264C160.21 156.555 141.542 157.858 124.091 163.318C106.667 168.853 90.5218 178.398 77.1843 190.991C50.3211 216.175 36.5553 254.241 40.252 290.897C42.9453 313.089 51.2056 334.749 65.1638 352.272V352.272ZM76.6568 190.448C89.8669 177.559 105.985 167.603 123.565 161.685C141.166 155.832 160.134 154.156 178.565 156.602C196.981 159.095 214.965 165.638 230.476 176.077C245.995 186.489 259.143 200.445 268.57 216.643C287.483 248.991 290.807 290.335 276.062 325.054L275.921 322.972L306.188 375.682L308.421 379.569L304.009 378.894L243.218 369.56L244.658 369.117C227.82 384.379 206.741 394.797 184.482 398.828C178.92 399.848 173.298 400.451 167.65 400.58C162.012 401.073 156.377 400.561 150.75 400.257C139.591 398.916 128.402 396.825 118.003 392.448C107.556 388.338 97.5592 382.966 88.6625 376.112C83.9959 372.963 80.054 368.925 75.8266 365.246C72.1004 361.057 67.9918 357.186 64.8018 352.552C50.9136 334.869 42.7933 313.104 40.252 290.897C36.3016 254.272 49.7999 215.974 76.6568 190.448" fill="#17282F"/>
<path d="M146.174 346.931L94.2236 294.343L111.677 277.103L142.025 307.816L205.073 208.974L225.762 222.168L146.174 346.931" fill="#F95B12"/>
</g>
<defs>
<clipPath id="clip0_294_2149">
<rect width="1283.61" height="1273" fill="white" transform="translate(0.258789)"/>
</clipPath>
</defs>
</svg>
