<svg width="1599" height="964" viewBox="0 0 1599 964" fill="none" xmlns="http://www.w3.org/2000/svg">
<g clip-path="url(#clip0_294_2570)">
<path d="M210.209 675.922C228.504 664.375 235.176 649.41 238.193 627.984C241.209 606.562 234.359 583.946 219.964 567.797C207.962 554.331 191.012 545.069 182.344 529.251C173.104 512.393 174.487 490.067 161.214 476.16C152.095 466.606 138.255 463.522 126.958 456.682C117.739 451.098 110.306 443.06 101.949 436.254C93.5899 429.448 83.5655 423.656 72.7928 423.963C56.5424 424.427 43.1994 439.746 41.6766 455.931C40.1536 472.118 48.4874 488.054 60.3791 499.14C69.0054 507.178 79.7907 513.528 85.2017 524.007C95.3625 543.686 82.579 569.782 93.5772 589.007C101.608 603.045 120.946 610.486 122.934 626.536C123.664 632.44 121.73 638.334 121.501 644.277C120.778 662.866 137.453 678.644 155.587 682.788C173.723 686.932 192.651 682.069 210.209 675.922" fill="#F3F2F1"/>
<path d="M104.848 490.894C104.795 490.948 105.432 491.724 106.697 493.159C108.13 494.738 109.99 496.79 112.3 499.34C114.782 501.973 117.766 505.242 120.998 509.244C124.26 513.215 128.18 517.565 131.972 522.812C133.927 525.392 135.972 528.091 138.1 530.899C140.216 533.722 142.186 536.827 144.355 539.945C148.784 546.129 152.893 553.138 157.362 560.417C165.885 575.221 174.357 592.023 181.682 610.336C188.841 628.721 194.13 646.782 198.015 663.42C199.724 671.792 201.509 679.718 202.499 687.26C203.044 691.02 203.725 694.634 204.105 698.141C204.469 701.643 204.819 705.011 205.153 708.233C205.967 714.655 206.074 720.509 206.403 725.637C206.777 730.767 206.829 735.194 206.815 738.813C206.868 742.252 206.911 745.018 206.944 747.152C206.999 749.063 207.063 750.067 207.14 750.07C207.217 750.072 207.301 749.073 207.392 747.165C207.465 745.031 207.561 742.257 207.681 738.815C207.827 735.187 207.903 730.745 207.646 725.592C207.433 720.442 207.435 714.556 206.719 708.094C206.428 704.853 206.124 701.465 205.809 697.938C205.471 694.408 204.83 690.77 204.322 686.985C203.406 679.391 201.68 671.408 200.014 662.974C196.217 646.217 190.955 628.02 183.751 609.518C176.38 591.091 167.797 574.21 159.127 559.376C154.584 552.082 150.392 545.073 145.875 538.899C143.661 535.789 141.645 532.693 139.482 529.883C137.305 527.092 135.211 524.41 133.21 521.845C129.321 516.635 125.3 512.338 121.936 508.429C118.603 504.491 115.517 501.296 112.929 498.746C110.491 496.312 108.528 494.351 107.015 492.844C105.647 491.513 104.902 490.839 104.848 490.894" fill="#DADBD8"/>
<path d="M1586.84 258.957C1586.84 258.957 1563.54 243.556 1535.14 299.279C1506.74 355 1495.98 387.139 1495.98 387.139C1495.98 387.139 1488.48 398.812 1480.46 391.181C1472.44 383.55 1461.45 361.903 1447.82 365.799C1433.68 369.842 1429.03 385.619 1431.72 408.806C1434.42 431.989 1438.46 483.004 1438.81 487.616C1439.15 492.147 1436.56 498.821 1430.26 494.499C1423.96 490.176 1387.74 449.834 1369.63 468.17C1351.52 486.501 1369.64 549.86 1371.49 556.822C1373.34 563.787 1371.98 566.761 1368.67 568.483C1365.36 570.208 1354.46 555.501 1343.69 544.45C1332.92 533.398 1318.49 522.473 1308.93 533.926C1299.36 545.379 1296.3 592.919 1341.54 670.133L1364.85 704.539L1406.53 702.227C1495.42 691.842 1531.52 660.772 1534.91 646.238C1538.29 631.707 1520.88 626.77 1505.57 624.824C1490.26 622.878 1471.96 623.037 1471.34 619.359C1470.73 615.678 1472.28 612.801 1478.95 610.082C1485.62 607.366 1547.12 583.676 1550.84 558.178C1554.57 532.677 1500.56 528.055 1493.31 525.631C1486.07 523.209 1489.84 517.117 1493.66 514.661C1497.55 512.163 1540.71 484.667 1560.84 472.854C1580.98 461.047 1590.77 447.827 1585.48 434.106C1580.38 420.876 1556.49 425.144 1545.56 423.337C1534.64 421.53 1539.44 408.508 1539.44 408.508C1539.44 408.508 1558.62 380.563 1586 324.334C1613.38 268.103 1586.34 258.68 1586.34 258.68" fill="#E7E8E5"/>
<path d="M1561.32 308.819C1561.32 308.819 1561.16 309.238 1560.8 310.026C1560.42 310.856 1559.88 312.016 1559.18 313.511C1557.7 316.611 1555.55 321.1 1552.8 326.857C1547.26 338.444 1539.11 355.149 1528.97 375.753C1508.69 416.97 1480.21 473.672 1448.55 536.191C1416.89 598.733 1388.28 655.371 1367.8 696.479C1357.6 717.011 1349.33 733.639 1343.6 745.188C1340.75 750.899 1338.54 755.35 1337.01 758.426C1336.26 759.898 1335.68 761.039 1335.26 761.856C1334.86 762.624 1334.63 763.004 1334.63 763.004C1334.63 763.004 1334.79 762.588 1335.15 761.797C1335.53 760.964 1336.08 759.809 1336.77 758.312C1338.26 755.211 1340.4 750.725 1343.15 744.967C1348.69 733.383 1356.84 716.679 1366.98 696.075C1387.25 654.858 1415.74 598.151 1447.4 535.612C1479.06 473.09 1507.67 416.459 1528.15 375.349C1538.35 354.82 1546.61 338.186 1552.35 326.639C1555.19 320.926 1557.41 316.475 1558.94 313.397C1559.69 311.927 1560.27 310.787 1560.69 309.969C1561.08 309.198 1561.32 308.819 1561.32 308.819" fill="#DADBD8"/>
<path d="M1461.97 396.703C1462.05 396.678 1462.42 397.684 1463.01 399.521C1463.62 401.357 1464.41 404.036 1465.36 407.358C1467.24 414.002 1469.6 423.245 1472.03 433.491C1474.39 443.603 1476.52 452.748 1478.15 459.742C1478.9 462.89 1479.54 465.547 1480.05 467.681C1480.51 469.555 1480.72 470.603 1480.63 470.63C1480.55 470.655 1480.17 469.654 1479.56 467.82C1478.97 465.981 1478.18 463.299 1477.26 459.968C1475.44 453.303 1473.2 444.034 1470.77 433.788C1468.35 423.698 1466.15 414.572 1464.47 407.591C1463.7 404.445 1463.05 401.791 1462.53 399.657C1462.09 397.778 1461.88 396.727 1461.97 396.703Z" fill="#DADBD8"/>
<path d="M1484.45 471.37C1484.35 471.028 1503.19 465.31 1526.53 458.601C1549.87 451.891 1568.86 446.731 1568.96 447.076C1569.06 447.418 1550.23 453.133 1526.88 459.842C1503.55 466.549 1484.55 471.712 1484.45 471.37" fill="#DADBD8"/>
<path d="M1431.5 565.2C1431.5 565.111 1432.59 565.064 1434.56 565.059C1436.8 565.066 1439.59 565.076 1442.9 565.089C1449.94 565.104 1459.67 565.081 1470.39 564.665C1481.12 564.273 1490.82 563.579 1497.84 563.019C1501.14 562.761 1503.92 562.543 1506.15 562.365C1508.12 562.224 1509.21 562.184 1509.22 562.273C1509.23 562.362 1508.16 562.568 1506.21 562.868C1504.26 563.163 1501.43 563.54 1497.92 563.929C1490.92 564.722 1481.2 565.562 1470.44 565.956C1459.68 566.373 1449.93 566.249 1442.89 566.001C1439.36 565.865 1436.52 565.718 1434.55 565.562C1432.58 565.413 1431.5 565.29 1431.5 565.2" fill="#DADBD8"/>
<path d="M1396.3 502.142C1396.38 502.097 1396.95 502.927 1397.93 504.466C1399.02 506.258 1400.36 508.454 1401.95 511.047C1405.29 516.631 1409.84 524.388 1414.79 532.999C1419.74 541.609 1424.16 549.441 1427.3 555.141C1428.75 557.815 1429.97 560.081 1430.97 561.927C1431.81 563.541 1432.24 564.455 1432.16 564.502C1432.09 564.545 1431.51 563.714 1430.53 562.175C1429.44 560.388 1428.1 558.19 1426.51 555.597C1423.17 550.013 1418.62 542.253 1413.67 533.643C1408.72 525.033 1404.3 517.203 1401.15 511.503C1399.71 508.829 1398.49 506.563 1397.49 504.719C1396.65 503.101 1396.22 502.186 1396.3 502.142" fill="#DADBD8"/>
<path d="M1339.03 579.042C1339.1 578.995 1339.83 580.066 1341.08 582.036C1342.43 584.229 1344.17 587.055 1346.26 590.45C1350.59 597.581 1356.49 607.482 1362.95 618.452C1369.4 629.429 1375.18 639.403 1379.31 646.652C1381.25 650.132 1382.88 653.029 1384.13 655.275C1385.25 657.324 1385.83 658.479 1385.76 658.524C1385.68 658.569 1384.95 657.5 1383.7 655.528C1382.35 653.337 1380.61 650.509 1378.52 647.116C1374.19 639.983 1368.29 630.084 1361.83 619.106C1355.38 608.134 1349.6 598.163 1345.48 590.911C1343.53 587.434 1341.9 584.539 1340.64 582.291C1339.53 580.239 1338.95 579.087 1339.03 579.042" fill="#DADBD8"/>
<path d="M1385.17 656.307C1385.17 656.218 1386.56 656.126 1389.05 656.03C1391.78 655.94 1395.34 655.824 1399.63 655.688C1408.55 655.385 1420.88 654.922 1434.48 654.027C1448.08 653.152 1460.36 652.037 1469.25 651.167C1473.53 650.753 1477.07 650.408 1479.79 650.143C1482.27 649.913 1483.66 649.826 1483.67 649.915C1483.68 650.002 1482.32 650.257 1479.85 650.644C1477.38 651.028 1473.79 651.529 1469.36 652.074C1460.48 653.177 1448.19 654.438 1434.56 655.313C1420.94 656.213 1408.58 656.533 1399.64 656.6C1395.17 656.622 1391.56 656.602 1389.06 656.535C1386.56 656.471 1385.17 656.396 1385.17 656.307" fill="#DADBD8"/>
<path d="M1585.49 962.487C1585.49 962.841 1230.53 963.132 792.782 963.132C354.876 963.132 0.000976562 962.841 0.000976562 962.487C0.000976562 962.131 354.876 961.84 792.782 961.84C1230.53 961.84 1585.49 962.131 1585.49 962.487" fill="#17282F"/>
<path d="M72.9518 789.615C82.1501 790.019 90.7425 795.088 96.7518 802.062C102.761 809.039 106.408 817.776 108.711 826.69C113.169 843.938 110.164 864.22 105.109 881.301C86.5377 874.483 75.2201 854.517 70.1161 844.03C62.0465 827.451 57.531 792.587 72.9518 789.615Z" fill="#F95B12"/>
<path d="M131.735 902.387C125.93 893.895 125.892 882.16 130.618 873.025C135.342 863.888 144.326 857.348 154.184 854.414C158.741 853.057 164.021 852.515 167.953 855.191C171.628 857.692 173.184 862.55 172.67 866.967C172.155 871.381 169.88 875.406 167.208 878.96C158.046 891.147 146.94 901.259 131.735 902.387Z" fill="#F95B12"/>
<path d="M133.291 959.908C133.2 959.921 132.931 958.642 132.489 956.327C132.012 953.769 131.398 950.468 130.657 946.502C129.258 938.242 127.026 926.496 128.902 913.549C130.707 900.655 135.94 889.666 141.382 883.123C144.063 879.814 146.62 877.475 148.511 876.042C149.426 875.286 150.231 874.825 150.742 874.468C151.266 874.131 151.552 873.97 151.577 874.01C151.779 874.237 147.198 877.011 142.103 883.688C136.943 890.251 131.959 901.057 130.18 913.729C128.334 926.415 130.384 938.053 131.558 946.354C132.188 950.523 132.697 953.901 132.985 956.246C133.276 958.592 133.378 959.896 133.291 959.908" fill="#17282F"/>
<path d="M78.7346 815.858C78.7752 815.841 79.0278 816.33 79.4722 817.277C79.9582 818.352 80.5838 819.732 81.3563 821.44C82.9723 825.066 85.2416 830.34 87.9892 836.881C93.4902 849.963 100.837 868.139 108.495 888.393C116.151 908.655 122.665 927.151 127.192 940.6C129.457 947.324 131.243 952.781 132.43 956.566C132.979 958.358 133.424 959.808 133.77 960.936C134.062 961.937 134.197 962.472 134.154 962.487C134.112 962.502 133.896 961.996 133.524 961.017C133.119 959.91 132.597 958.489 131.953 956.727C130.571 952.836 128.664 947.468 126.33 940.9C121.584 927.531 114.938 909.098 107.288 888.849C99.634 868.61 92.4271 850.388 87.1448 837.227C84.5503 830.756 82.43 825.467 80.8936 821.636C80.212 819.889 79.661 818.476 79.2323 817.377C78.8662 816.399 78.6929 815.876 78.7346 815.858" fill="#17282F"/>
<path d="M111.507 921.671C100.681 902.884 80.278 889.962 58.6647 888.206C53.1608 887.76 46.5292 888.631 44.0311 893.553C41.5286 898.487 44.7689 904.378 48.4847 908.476C63.9501 925.517 90.3041 931.64 111.697 923.156" fill="#F95B12"/>
<path d="M66.925 903.023C66.9317 902.936 68.1553 902.993 70.3715 903.179C71.4809 903.264 72.8393 903.375 74.3904 903.68C75.9394 903.983 77.744 904.169 79.6589 904.719C81.5896 905.212 83.7193 905.702 85.9219 906.518C88.1679 907.202 90.4732 908.186 92.8956 909.237C97.6763 911.458 102.746 914.355 107.563 918.102C112.344 921.897 116.374 926.126 119.645 930.265C121.217 932.386 122.719 934.398 123.885 936.438C125.176 938.401 126.13 940.369 127.029 942.149C127.992 943.896 128.554 945.621 129.179 947.071C129.812 948.521 130.203 949.827 130.515 950.895C131.157 953.027 131.469 954.209 131.385 954.234C131.107 954.328 129.824 949.559 126.214 942.56C125.275 940.833 124.29 938.914 122.978 937.009C121.791 935.02 120.281 933.067 118.71 931C115.442 926.971 111.462 922.847 106.765 919.118C102.035 915.438 97.0751 912.561 92.3969 910.315C90.0268 909.252 87.7721 908.246 85.5715 907.526C83.4175 906.679 81.3281 906.146 79.4353 905.604C71.815 903.608 66.892 903.303 66.925 903.023" fill="#17282F"/>
<path d="M1322.04 -0.01112H232.394C213.609 -0.01112 198.381 15.2166 198.381 34.0009V803.646C198.381 822.432 213.609 837.663 232.394 837.663H650.601C650.601 837.663 677.203 919.922 594.737 962.487H985.782C985.782 962.487 892.671 930.565 916.613 837.663H1322.05C1340.83 837.663 1356.06 822.432 1356.06 803.65V34.0034C1356.06 15.2166 1340.83 -0.01112 1322.04 -0.01112Z" fill="#17282F"/>
<path d="M791.769 756.719C806.593 777.902 783.395 801.103 762.206 786.281C761.507 785.79 760.873 785.156 760.384 784.457C745.603 763.276 768.774 740.107 789.948 754.896C790.646 755.382 791.283 756.017 791.769 756.719Z" fill="#33535F"/>
<path d="M1321.09 702.297H231.082C226.602 702.297 222.971 698.668 222.971 694.187V54.2341C222.971 49.7555 226.602 46.1246 231.082 46.1246H1321.09C1325.57 46.1246 1329.2 49.7555 1329.2 54.2341V694.187C1329.2 698.668 1325.57 702.297 1321.09 702.297" fill="#DADBD8"/>
<path d="M222.971 702.297H1329.2V94.1994H222.971V702.297Z" fill="white"/>
<path d="M313.697 71.4651C313.697 76.3452 309.742 80.3008 304.862 80.3008C299.984 80.3008 296.028 76.3452 296.028 71.4651C296.028 66.585 299.984 62.6318 304.862 62.6318C309.742 62.6318 313.697 66.585 313.697 71.4651Z" fill="#33535F"/>
<path d="M260.155 71.4651C260.155 76.3452 256.201 80.3008 251.319 80.3008C246.441 80.3008 242.485 76.3452 242.485 71.4651C242.485 66.585 246.441 62.6318 251.319 62.6318C256.201 62.6318 260.155 66.585 260.155 71.4651Z" fill="#33535F"/>
<path d="M285.855 71.4651C285.855 76.3452 281.901 80.3008 277.019 80.3008C272.141 80.3008 268.186 76.3452 268.186 71.4651C268.186 66.585 272.141 62.6318 277.019 62.6318C281.901 62.6318 285.855 66.585 285.855 71.4651Z" fill="#33535F"/>
<path d="M1003.5 617.568H1294.82V130.854H1003.5V617.568Z" fill="#F3F2F1"/>
<path d="M1080.78 417.467L1083.9 423.792L1090.89 424.806L1085.83 429.731L1087.03 436.683L1080.78 433.401L1074.54 436.683L1075.73 429.731L1070.68 424.806L1077.66 423.792L1080.78 417.467" fill="#F95B12"/>
<path d="M1115.47 417.467L1118.59 423.792L1125.57 424.806L1120.52 429.731L1121.71 436.683L1115.47 433.401L1109.22 436.683L1110.42 429.731L1105.37 424.806L1112.35 423.792L1115.47 417.467" fill="#F95B12"/>
<path d="M1150.16 417.467L1153.28 423.792L1160.26 424.806L1155.21 429.731L1156.4 436.683L1150.16 433.401L1143.91 436.683L1145.11 429.731L1140.05 424.806L1147.03 423.792L1150.16 417.467" fill="#F95B12"/>
<path d="M1184.84 417.467L1187.97 423.792L1194.95 424.806L1189.89 429.731L1191.09 436.683L1184.84 433.401L1178.6 436.683L1179.79 429.731L1174.74 424.806L1181.72 423.792L1184.84 417.467Z" fill="#F95B12"/>
<path d="M1219.53 417.467L1222.65 423.792L1229.63 424.806L1224.58 429.731L1225.78 436.683L1219.53 433.401L1213.29 436.683L1214.48 429.731L1209.43 424.806L1216.41 423.792L1219.53 417.467" fill="#F95B12"/>
<path d="M1137.27 474.519C1137.27 474.876 1115.15 475.163 1087.87 475.163C1060.59 475.163 1038.47 474.876 1038.47 474.519C1038.47 474.162 1060.59 473.872 1087.87 473.872C1115.15 473.872 1137.27 474.162 1137.27 474.519Z" fill="#F95B12"/>
<path d="M1261.41 495.965C1261.41 496.322 1212.08 496.612 1151.24 496.612C1090.39 496.612 1041.07 496.322 1041.07 495.965C1041.07 495.611 1090.39 495.321 1151.24 495.321C1212.08 495.321 1261.41 495.611 1261.41 495.965Z" fill="#17282F"/>
<path d="M1261.41 514.394C1261.41 514.751 1212.08 515.041 1151.24 515.041C1090.39 515.041 1041.07 514.751 1041.07 514.394C1041.07 514.037 1090.39 513.747 1151.24 513.747C1212.08 513.747 1261.41 514.037 1261.41 514.394Z" fill="#17282F"/>
<path d="M1261.41 532.825C1261.41 533.18 1212.08 533.47 1151.24 533.47C1090.39 533.47 1041.07 533.18 1041.07 532.825C1041.07 532.468 1090.39 532.178 1151.24 532.178C1212.08 532.178 1261.41 532.468 1261.41 532.825Z" fill="#17282F"/>
<path d="M1261.41 551.253C1261.41 551.61 1212.08 551.897 1151.24 551.897C1090.39 551.897 1041.07 551.61 1041.07 551.253C1041.07 550.899 1090.39 550.606 1151.24 550.606C1212.08 550.606 1261.41 550.899 1261.41 551.253Z" fill="#17282F"/>
<path d="M1261.41 569.682C1261.41 570.037 1212.08 570.324 1151.24 570.324C1090.39 570.324 1041.07 570.037 1041.07 569.682C1041.07 569.325 1090.39 569.035 1151.24 569.035C1212.08 569.035 1261.41 569.325 1261.41 569.682Z" fill="#17282F"/>
<path d="M1022.67 396.485H1273.61V155.57H1022.67V396.485Z" fill="#DADBD8"/>
<path d="M1236.32 354.483L1252.64 396.485H1213.13L1204.22 373.612L1236.32 354.483" fill="#F8A58D"/>
<path d="M1085.91 396.485H1192.89C1194.57 380.69 1195.59 365.745 1195.59 365.745L1201.1 380.673L1246.03 358.205C1246.03 358.205 1229.7 314.646 1216.02 299.897C1198.74 281.254 1167.66 283.11 1167.66 283.11L1127.32 283.765C1127.32 283.765 1111.96 285.16 1097.45 292.452L1096.46 292.742L1096.47 292.947C1087.73 300.427 1061.52 335.513 1061.52 335.513L1071.19 344.928L1091 363.378C1091 363.378 1090.92 363.509 1090.96 363.74C1091.3 365.69 1085.91 396.485 1085.91 396.485" fill="#FA7C41"/>
<path d="M1168.81 281.584C1168.86 281.577 1168.93 281.825 1169.03 282.306C1169.15 282.784 1169.24 283.503 1169.31 284.437C1169.43 286.298 1169.27 289.059 1168.21 292.269C1167.13 295.439 1165.09 299.08 1161.66 302.009C1158.26 304.971 1153.4 306.88 1148.22 307.038C1143.03 307.172 1138.08 305.536 1134.52 302.77C1130.93 300.037 1128.69 296.515 1127.43 293.409C1126.2 290.262 1125.88 287.515 1125.9 285.649C1125.92 284.715 1125.96 283.993 1126.06 283.508C1126.13 283.022 1126.19 282.772 1126.24 282.776C1126.55 282.737 1125.68 287.027 1128.27 293.055C1129.59 295.994 1131.81 299.291 1135.23 301.816C1138.62 304.369 1143.28 305.871 1148.18 305.749C1153.08 305.593 1157.66 303.836 1160.89 301.097C1164.17 298.386 1166.21 294.971 1167.35 291.962C1169.61 285.8 1168.5 281.562 1168.81 281.584" fill="#17282F"/>
<path d="M1207.03 291.161C1207.04 291.29 1205.95 291.261 1204.17 291.898C1202.41 292.502 1199.99 293.957 1197.94 296.612C1195.86 299.236 1194.48 303.105 1193.89 307.534C1193.31 311.971 1193.17 316.982 1192.98 322.194C1192.71 332.641 1193.11 342.106 1193.58 348.942C1193.83 352.152 1194.03 354.861 1194.2 357.039C1194.36 358.953 1194.41 360.016 1194.32 360.028C1194.23 360.041 1194.01 358.997 1193.7 357.101C1193.41 355.198 1193.02 352.444 1192.67 349.019C1191.96 342.181 1191.41 332.666 1191.69 322.157C1191.88 316.908 1192.05 311.921 1192.72 307.361C1193.38 302.823 1194.92 298.748 1197.23 296.044C1199.49 293.31 1202.13 291.9 1204.02 291.419C1204.97 291.159 1205.73 291.092 1206.25 291.082C1206.76 291.092 1207.03 291.117 1207.03 291.161" fill="#17282F"/>
<path d="M1111.14 286.637C1111.22 286.666 1110.95 287.747 1110.38 289.675C1109.73 291.849 1108.92 294.578 1107.95 297.822C1105.89 304.697 1103.12 314.215 1100.37 324.808C1097.62 335.408 1095.4 345.069 1093.85 352.076C1093.12 355.382 1092.5 358.16 1092.01 360.376C1091.57 362.337 1091.28 363.412 1091.19 363.397C1091.1 363.38 1091.23 362.275 1091.52 360.284C1091.81 358.294 1092.3 355.427 1092.96 351.892C1094.28 344.826 1096.36 335.108 1099.12 324.483C1101.88 313.865 1104.79 304.36 1107.08 297.547C1108.22 294.136 1109.19 291.393 1109.91 289.517C1110.62 287.635 1111.05 286.609 1111.14 286.637Z" fill="#17282F"/>
<path d="M1201.1 380.672L1195.59 365.744L1201.1 380.672L1206.01 378.213L1201.1 380.672Z" fill="#A7AAA9"/>
<path d="M1206.01 378.212L1207.03 377.704V377.706L1206.01 378.212Z" fill="#D8866F"/>
<path d="M1201.1 380.672L1195.59 365.744C1195.59 365.744 1194.93 361.865 1194.15 356.428C1194 354.358 1193.81 351.857 1193.58 348.943C1193.19 343.242 1192.84 335.715 1192.9 327.313L1207.03 377.708L1206.01 378.213L1201.1 380.672" fill="#F95B12"/>
<path d="M1194.15 356.427C1192.74 346.431 1190.95 331.164 1192.26 325.017L1192.9 327.312C1192.84 335.714 1193.19 343.241 1193.58 348.942C1193.8 351.856 1194 354.357 1194.15 356.427" fill="#111D23"/>
<path d="M1113.36 286.477C1115.94 285.47 1122.47 284.392 1126 283.854C1126 283.874 1126 283.894 1125.99 283.916C1123.81 284.196 1119.11 284.915 1113.36 286.477M1126.32 283.874C1126.32 283.852 1126.32 283.827 1126.32 283.805C1127.56 283.619 1128.36 283.51 1128.36 283.51L1128.45 283.743L1127.33 283.763C1127.33 283.763 1126.97 283.795 1126.32 283.874" fill="#A7AAA9"/>
<path d="M1133.83 302.227C1123.78 301.508 1104.58 290.893 1112.84 286.704C1112.99 286.63 1113.16 286.553 1113.36 286.478C1119.11 284.917 1123.81 284.198 1126 283.918C1125.94 284.369 1125.91 284.949 1125.9 285.651C1125.88 287.517 1126.2 290.263 1127.43 293.411C1128.61 296.315 1130.64 299.58 1133.83 302.227ZM1134.69 301.406C1131.57 298.94 1129.52 295.84 1128.27 293.056C1126.47 288.868 1126.34 285.517 1126.32 283.876C1126.97 283.797 1127.33 283.764 1127.33 283.764L1128.45 283.745L1134.69 301.406" fill="#F95B12"/>
<path d="M1134.86 302.263C1134.53 302.263 1134.19 302.25 1133.83 302.225C1130.64 299.578 1128.61 296.314 1127.43 293.41C1126.2 290.262 1125.88 287.516 1125.9 285.65C1125.91 284.948 1125.94 284.368 1126 283.917C1126 283.895 1126 283.875 1126 283.855C1126.11 283.838 1126.22 283.823 1126.32 283.806C1126.32 283.828 1126.32 283.853 1126.32 283.875C1126.34 285.516 1126.47 288.867 1128.27 293.055C1129.52 295.838 1131.57 298.939 1134.69 301.405L1135 302.263C1134.95 302.263 1134.91 302.263 1134.86 302.263" fill="#111D23"/>
<path d="M1149.16 305.861C1136.51 306.716 1125.91 296.426 1126.37 283.756C1126.63 276.871 1126.86 271.262 1126.86 271.262C1126.86 271.262 1109.84 269.78 1108.49 252.946C1107.14 236.115 1107.45 197.233 1107.45 197.233C1126.39 187.534 1149.09 188.845 1166.79 200.655L1169.41 202.41L1169.09 284.633C1169.04 295.838 1160.34 305.108 1149.16 305.861" fill="#F8A58D"/>
<path d="M1116.6 226.971C1117.54 225.997 1117.51 224.446 1116.54 223.504C1115.56 222.565 1114.01 222.594 1113.07 223.568C1112.13 224.545 1112.16 226.096 1113.13 227.038C1114.11 227.978 1115.66 227.948 1116.6 226.971" fill="#17282F"/>
<path d="M1109.12 221.966C1109.4 222.239 1110.97 220.856 1113.29 220.69C1115.61 220.487 1117.37 221.605 1117.61 221.29C1117.72 221.151 1117.43 220.64 1116.65 220.132C1115.9 219.624 1114.62 219.173 1113.18 219.29C1111.73 219.404 1110.55 220.051 1109.88 220.673C1109.19 221.297 1108.98 221.845 1109.12 221.966" fill="#17282F"/>
<path d="M1137.75 223.273C1136.65 224.059 1136.39 225.591 1137.18 226.694C1137.96 227.797 1139.49 228.054 1140.6 227.269C1141.7 226.483 1141.96 224.951 1141.17 223.848C1140.39 222.746 1138.86 222.488 1137.75 223.273" fill="#17282F"/>
<path d="M1133.68 222.02C1133.96 222.295 1135.53 220.909 1137.84 220.743C1140.16 220.542 1141.93 221.66 1142.16 221.346C1142.28 221.204 1141.98 220.696 1141.21 220.186C1140.45 219.68 1139.18 219.229 1137.73 219.343C1136.29 219.457 1135.1 220.106 1134.43 220.726C1133.75 221.353 1133.54 221.901 1133.68 222.02" fill="#17282F"/>
<path d="M1126.27 242.467C1126.27 242.284 1124.82 242.09 1122.47 241.924C1121.85 241.899 1121.37 241.793 1121.3 241.471C1121.17 241.111 1121.36 240.447 1121.62 239.703C1122.11 238.127 1122.61 236.533 1123.14 234.863C1125.22 227.978 1126.62 222.307 1126.27 222.203C1125.92 222.096 1123.95 227.594 1121.87 234.484C1121.38 236.162 1120.91 237.765 1120.45 239.351C1120.27 240.068 1119.91 240.915 1120.29 241.894C1120.49 242.385 1120.99 242.715 1121.4 242.794C1121.81 242.888 1122.15 242.866 1122.45 242.858C1124.8 242.787 1126.26 242.65 1126.27 242.467" fill="#17282F"/>
<path d="M1126.82 271.018C1126.82 271.018 1137.52 271.167 1148.36 263.295C1148.36 263.295 1143.99 275.77 1127.07 275.388L1126.82 271.018Z" fill="#F68260"/>
<path d="M1168.66 220.344C1168.99 220.218 1182.44 218.753 1180.32 231.76C1178.49 243.003 1166.4 239.572 1166.4 239.193C1166.41 238.817 1168.66 220.344 1168.66 220.344" fill="#F8A58D"/>
<path d="M1171.11 234.247C1171.17 234.214 1171.3 234.398 1171.62 234.574C1171.93 234.742 1172.47 234.886 1173.07 234.71C1174.28 234.366 1175.41 232.566 1175.61 230.559C1175.71 229.545 1175.58 228.561 1175.28 227.733C1174.99 226.891 1174.51 226.283 1173.92 226.132C1173.34 225.951 1172.9 226.276 1172.74 226.581C1172.56 226.881 1172.62 227.109 1172.56 227.123C1172.52 227.151 1172.33 226.92 1172.46 226.464C1172.52 226.249 1172.67 225.993 1172.95 225.8C1173.23 225.602 1173.63 225.52 1174.04 225.594C1174.9 225.718 1175.61 226.566 1175.95 227.475C1176.32 228.39 1176.51 229.498 1176.39 230.638C1176.15 232.881 1174.84 234.901 1173.19 235.245C1172.4 235.394 1171.76 235.109 1171.44 234.819C1171.11 234.519 1171.07 234.264 1171.11 234.247" fill="#F68260"/>
<path d="M1165.85 232.036C1163.24 233.608 1159.7 231.659 1158.35 228.931C1157 226.202 1157.15 223.015 1157.04 219.973C1156.88 215.834 1156.16 211.718 1154.91 207.769C1154.11 205.239 1152.93 202.592 1150.62 201.286C1147.98 199.794 1144.66 200.498 1141.81 201.549C1138.96 202.594 1136.07 203.972 1133.05 203.707C1129.05 203.36 1125.75 200.215 1121.78 199.67C1118.1 199.164 1114.55 200.946 1110.97 201.962C1107.39 202.981 1103.43 203.209 1100.02 201.717C1096.61 200.225 1093.92 196.72 1094.18 193.003C1094.45 189.285 1098.3 185.996 1101.89 186.99C1099.09 185.545 1098.85 181.183 1100.99 178.871C1103.13 176.561 1106.76 176.162 1109.77 177.121C1112.77 178.08 1115.27 180.154 1117.61 182.264C1117.9 179.436 1120.77 177.386 1123.6 177.205C1126.44 177.027 1129.17 178.313 1131.53 179.902C1133.89 181.493 1136.03 183.419 1138.52 184.792C1143.49 187.53 1149.38 187.823 1154.97 188.854C1160.55 189.887 1166.5 192.125 1169.21 197.115C1171.6 201.511 1170 206.788 1169.79 211.79C1169.58 216.992 1169.58 218.157 1169.33 223.044C1169.33 223.044 1169.66 229.838 1165.85 232.036" fill="#17282F"/>
<path d="M1124.17 249.268C1124.14 249.42 1124.8 249.697 1125.94 249.68C1127.06 249.667 1128.67 249.281 1130.08 248.215C1131.5 247.152 1132.32 245.717 1132.64 244.641C1132.97 243.556 1132.89 242.844 1132.73 242.824C1132.4 242.733 1131.82 245.412 1129.35 247.249C1126.91 249.105 1124.17 248.924 1124.17 249.268Z" fill="white"/>
<path d="M1104.81 190.442C1104.89 190.405 1103.69 190.948 1103.8 192.777C1103.87 193.629 1104.27 194.685 1105.18 195.53C1106.11 196.398 1107.62 196.698 1109.13 196.477C1110.66 196.249 1112.21 195.535 1113.74 194.621C1115.26 193.731 1116.85 192.65 1118.73 192.165C1120.61 191.701 1122.72 192.065 1124.61 193.062C1126.52 194.011 1128.32 195.359 1130.29 196.569C1132.23 197.771 1134.43 198.809 1136.7 198.636C1139 198.524 1140.82 197.134 1142.38 195.957C1143.95 194.745 1145.47 193.595 1147.14 193.146C1148.82 192.74 1150.49 192.93 1151.87 193.439C1154.67 194.489 1156.31 196.502 1156.98 197.996C1157.67 199.518 1157.63 200.492 1157.71 200.477C1157.71 200.477 1157.8 199.506 1157.15 197.92C1156.52 196.363 1154.87 194.249 1151.99 193.116C1150.56 192.571 1148.82 192.341 1147.04 192.757C1145.25 193.218 1143.68 194.408 1142.11 195.602C1140.54 196.777 1138.8 198.073 1136.67 198.163C1134.56 198.321 1132.46 197.347 1130.55 196.155C1128.6 194.963 1126.79 193.607 1124.82 192.638C1122.88 191.614 1120.62 191.22 1118.62 191.731C1116.63 192.264 1115.04 193.382 1113.53 194.276C1112.04 195.196 1110.54 195.9 1109.08 196.138C1107.64 196.368 1106.23 196.108 1105.36 195.327C1104.49 194.556 1104.08 193.562 1103.99 192.757C1103.82 191.044 1104.92 190.462 1104.81 190.442" fill="#33535F"/>
<path d="M1112.28 181.569C1112.28 181.569 1112.17 181.353 1111.79 181.14C1111.41 180.922 1110.71 180.803 1109.93 181.123C1109.15 181.386 1108.34 182.37 1108.51 183.601C1108.62 184.786 1109.53 186.072 1110.97 186.558C1112.39 187.074 1114.09 186.89 1115.71 186.352C1117.33 185.842 1118.97 185.017 1120.82 184.811C1122.69 184.526 1124.54 185.443 1126.02 186.841C1127.55 188.182 1128.92 189.961 1131.02 190.923C1133.17 191.919 1135.53 191.277 1137.42 190.544C1139.36 189.798 1141.18 188.987 1143.05 188.774C1146.79 188.268 1150.23 189.337 1152.57 190.915C1154.95 192.497 1156.34 194.437 1157.12 195.815C1157.91 197.213 1158.15 198.081 1158.2 198.063C1158.2 198.063 1158.03 197.171 1157.29 195.726C1156.55 194.301 1155.18 192.291 1152.76 190.633C1150.38 188.975 1146.85 187.835 1142.99 188.33C1141.06 188.539 1139.17 189.371 1137.26 190.1C1135.37 190.821 1133.17 191.394 1131.21 190.482C1129.26 189.597 1127.9 187.862 1126.34 186.486C1124.84 185.059 1122.77 184.038 1120.77 184.367C1118.82 184.603 1117.17 185.46 1115.58 185.971C1114.01 186.514 1112.41 186.692 1111.08 186.236C1109.75 185.81 1108.91 184.65 1108.78 183.569C1108.61 182.456 1109.29 181.576 1110.01 181.294C1110.72 180.972 1111.38 181.051 1111.74 181.227C1112.12 181.4 1112.26 181.591 1112.28 181.569" fill="#33535F"/>
<path d="M1162.05 194.74C1162.38 194.864 1163.27 192.846 1165.47 191.51C1167.62 190.11 1169.83 190.177 1169.86 189.827C1169.88 189.679 1169.32 189.431 1168.37 189.418C1167.41 189.404 1166.07 189.701 1164.82 190.484C1163.57 191.272 1162.72 192.355 1162.33 193.218C1161.92 194.088 1161.9 194.693 1162.05 194.74Z" fill="#17282F"/>
<path d="M1164.03 182.28C1163.68 182.372 1164.17 184.915 1163.76 187.996C1163.4 191.084 1162.29 193.421 1162.59 193.595C1162.85 193.783 1164.55 191.52 1164.96 188.147C1165.4 184.779 1164.32 182.161 1164.03 182.28Z" fill="#17282F"/>
<path d="M1167.98 227.451C1168.02 227.557 1169.28 225.76 1168.68 222.655C1168.45 221.076 1167.21 219.574 1166 218.042C1165.39 217.272 1164.84 216.382 1164.7 215.361C1164.56 214.335 1164.8 213.239 1165.08 212.131C1165.74 209.918 1165.96 207.596 1165.46 205.6C1165.01 203.59 1163.78 202.009 1162.47 201.196C1161.15 200.339 1159.84 200.165 1158.99 200.232C1158.13 200.309 1157.71 200.557 1157.71 200.557C1157.72 200.604 1158.17 200.435 1159 200.42C1159.82 200.413 1161.06 200.634 1162.27 201.481C1163.51 202.294 1164.61 203.781 1165.03 205.702C1165.47 207.615 1165.26 209.809 1164.61 212.01C1164.33 213.125 1164.06 214.28 1164.23 215.428C1164.4 216.58 1165.02 217.534 1165.65 218.317C1166.91 219.871 1168.08 221.242 1168.34 222.729C1168.68 224.174 1168.57 225.411 1168.38 226.216C1168.21 227.037 1167.94 227.426 1167.98 227.451" fill="#33535F"/>
<path d="M1155.67 347.401C1155.71 347.441 1155.75 347.993 1155.79 348.995C1155.83 350.172 1155.87 351.587 1155.93 353.275C1156.03 356.938 1156.15 362.098 1156.2 368.307L1156.04 367.915C1158.38 370.094 1160.96 372.495 1163.69 375.041L1163.05 374.919C1167.13 373.269 1171.57 371.474 1176.18 369.608L1175.79 370.091C1175.86 369.702 1175.94 369.278 1176.01 368.852C1177.45 361.045 1178.81 353.694 1179.98 347.299L1180.55 347.971C1173.24 347.916 1167.1 347.79 1162.72 347.681C1160.68 347.622 1158.98 347.572 1157.59 347.532C1156.38 347.485 1155.71 347.443 1155.67 347.401C1155.62 347.356 1156.21 347.314 1157.35 347.267C1158.7 347.227 1160.36 347.178 1162.36 347.118C1166.7 347.012 1173 346.883 1180.55 346.831L1181.23 346.826L1181.11 347.503C1179.97 353.904 1178.67 361.263 1177.28 369.083C1177.21 369.506 1177.13 369.93 1177.06 370.322L1176.99 370.674L1176.66 370.805C1172.04 372.649 1167.59 374.419 1163.5 376.05L1163.13 376.193L1162.86 375.926C1160.16 373.343 1157.61 370.907 1155.3 368.696L1155.13 368.535L1155.13 368.307C1155.19 361.86 1155.31 356.564 1155.41 352.938C1155.47 351.295 1155.51 349.922 1155.55 348.779C1155.59 347.837 1155.63 347.359 1155.67 347.401" fill="#17282F"/>
<path d="M1179.06 353.854C1179.08 354.201 1173.84 354.818 1167.35 354.838C1160.85 354.865 1155.61 354.285 1155.63 353.938C1155.65 353.574 1160.89 353.574 1167.35 353.547C1173.79 353.527 1179.03 353.492 1179.06 353.854" fill="#17282F"/>
<path d="M1067.16 340.933C1067.69 341.448 1027.47 396.485 1027.47 396.485H1066.85L1091 363.378L1067.16 340.933" fill="#F8A58D"/>
<path d="M572.134 734.072H987.374V40.3263H572.134V734.072Z" fill="#F3F2F1"/>
<path d="M682.299 448.852L686.751 457.866L696.699 459.313L689.499 466.33L691.2 476.241L682.299 471.564L673.402 476.241L675.099 466.33L667.899 459.313L677.85 457.866L682.299 448.852Z" fill="#F95B12"/>
<path d="M731.742 448.852L736.191 457.866L746.142 459.313L738.939 466.33L740.639 476.241L731.742 471.564L722.842 476.241L724.539 466.33L717.342 459.313L727.29 457.866L731.742 448.852Z" fill="#F95B12"/>
<path d="M781.183 448.852L785.632 457.866L795.583 459.313L788.383 466.33L790.083 476.241L781.183 471.564L772.283 476.241L773.983 466.33L766.783 459.313L776.732 457.866L781.183 448.852Z" fill="#F95B12"/>
<path d="M830.623 448.852L835.074 457.866L845.025 459.313L837.823 466.33L839.523 476.241L830.623 471.564L821.723 476.241L823.423 466.33L816.226 459.313L826.174 457.866L830.623 448.852" fill="#F95B12"/>
<path d="M880.062 448.852L884.514 457.866L894.465 459.313L887.265 466.33L888.963 476.241L880.062 471.564L871.165 476.241L872.865 466.33L865.665 459.313L875.614 457.866L880.062 448.852" fill="#F95B12"/>
<path d="M762.806 530.171C762.806 530.531 731.283 530.818 692.403 530.818C653.511 530.818 621.992 530.531 621.992 530.171C621.992 529.817 653.511 529.527 692.403 529.527C731.283 529.527 762.806 529.817 762.806 530.171Z" fill="#F03D5F"/>
<path d="M939.749 560.743C939.749 561.1 869.44 561.39 782.731 561.39C695.992 561.39 625.697 561.1 625.697 560.743C625.697 560.388 695.992 560.096 782.731 560.096C869.44 560.096 939.749 560.388 939.749 560.743" fill="#17282F"/>
<path d="M939.749 587.012C939.749 587.366 869.44 587.656 782.731 587.656C695.992 587.656 625.697 587.366 625.697 587.012C625.697 586.652 695.992 586.365 782.731 586.365C869.44 586.365 939.749 586.652 939.749 587.012" fill="#17282F"/>
<path d="M939.749 613.277C939.749 613.636 869.44 613.924 782.731 613.924C695.992 613.924 625.697 613.636 625.697 613.277C625.697 612.923 695.992 612.635 782.731 612.635C869.44 612.635 939.749 612.923 939.749 613.277" fill="#17282F"/>
<path d="M939.749 639.546C939.749 639.902 869.44 640.192 782.731 640.192C695.992 640.192 625.697 639.902 625.697 639.546C625.697 639.191 695.992 638.899 782.731 638.899C869.44 638.899 939.749 639.191 939.749 639.546" fill="#17282F"/>
<path d="M939.749 665.814C939.749 666.169 869.44 666.456 782.731 666.456C695.992 666.456 625.697 666.169 625.697 665.814C625.697 665.455 695.992 665.167 782.731 665.167C869.44 665.167 939.749 665.455 939.749 665.814" fill="#17282F"/>
<path d="M599.459 418.943H957.147V75.5489H599.459V418.943Z" fill="#DADBD8"/>
<path d="M757.815 132.454C761.552 119.898 773.055 110.495 785.794 107.446C798.536 104.398 814.348 100.234 826.015 106.19C833.304 109.913 840.293 115.298 843.158 122.967C846.554 132.058 841.329 149.02 838.724 158.367C836.117 167.715 834.156 178.378 839.309 186.601C844.321 194.607 854.527 197.712 860.864 204.716C869.653 214.43 868.377 231.457 858.24 239.75C869.504 239.093 879.019 250.583 878.628 261.863C878.236 273.14 869.978 283.039 859.915 288.149C849.855 293.26 838.238 294.326 826.954 294.345C812.968 294.37 798.979 292.92 785.293 290.028C774.009 287.644 762.241 283.842 754.9 274.946C748.151 266.772 746.285 255.607 746.265 245.006C746.195 207.505 765.879 170.328 757.346 133.81" fill="#17282F"/>
<path d="M766.954 123.84C755.26 115.772 738.808 115.287 726.661 122.648C714.512 130.011 707.329 144.82 709.067 158.918C709.974 166.281 713.079 173.704 711.188 180.874C707.647 194.315 688.691 199.564 686.193 213.233C685.206 218.626 687.125 224.062 688.57 229.348C690.017 234.635 690.932 240.593 688.203 245.347C686.18 248.869 682.52 251.067 679.647 253.937C670.407 263.16 670.579 279.344 678.314 289.86C686.049 300.376 699.733 305.422 712.779 305.001C725.826 304.577 738.295 299.313 749.424 292.487L766.954 123.84" fill="#17282F"/>
<path d="M739.558 138.895L739.734 147.815L741.526 281.327C741.734 296.828 755.227 308.992 771.82 308.645H771.822C788.579 308.291 802.194 295.318 802.243 279.659C802.29 263.22 802.647 245.915 802.647 245.915C802.647 245.915 823.823 242.398 828.21 214.771C830.391 201.03 829.702 178.501 828.54 160.086C827.496 143.512 812.876 131.14 796.362 132.887L739.558 138.895Z" fill="#C0776A"/>
<path d="M817.909 175.774C817.976 177.645 816.444 179.244 814.491 179.348C812.543 179.452 810.904 178.025 810.84 176.153C810.773 174.285 812.305 172.681 814.253 172.577C816.206 172.473 817.842 173.903 817.909 175.774" fill="#17282F"/>
<path d="M823.653 171.807C823.214 172.268 820.53 170.282 816.716 170.292C812.909 170.248 810.108 172.208 809.697 171.742C809.494 171.536 809.937 170.704 811.159 169.814C812.356 168.931 814.403 168.074 816.778 168.084C819.152 168.096 821.152 168.969 822.3 169.866C823.472 170.766 823.869 171.601 823.653 171.807" fill="#17282F"/>
<path d="M781.18 175.774C781.247 177.645 779.718 179.244 777.762 179.348C775.814 179.452 774.178 178.025 774.111 176.153C774.045 174.285 775.576 172.681 777.524 172.577C779.477 172.473 781.116 173.903 781.18 175.774" fill="#17282F"/>
<path d="M786.173 172.518C785.732 172.979 783.045 170.994 779.236 171.004C775.426 170.959 772.628 172.922 772.214 172.454C772.011 172.248 772.455 171.416 773.679 170.526C774.876 169.643 776.923 168.786 779.298 168.796C781.672 168.808 783.67 169.681 784.82 170.578C785.987 171.477 786.386 172.313 786.173 172.518" fill="#17282F"/>
<path d="M800.012 200.794C799.994 200.578 802.364 200.169 806.205 199.679C807.177 199.577 808.099 199.384 808.265 198.719C808.493 198.016 808.084 196.965 807.613 195.832C806.699 193.477 805.739 191.009 804.736 188.419C800.738 177.863 797.843 169.184 798.267 169.027C798.693 168.869 802.282 177.298 806.28 187.854C807.244 190.456 808.163 192.937 809.038 195.312C809.407 196.417 810.04 197.671 809.544 199.133C809.281 199.86 808.567 200.387 807.943 200.556C807.318 200.747 806.77 200.757 806.29 200.786C802.423 200.995 800.024 201.012 800.012 200.794" fill="#17282F"/>
<path d="M802.646 245.914C802.646 245.914 784.06 247.114 765.643 236.045C765.643 236.045 774.62 255.023 802.274 252.438L802.646 245.914" fill="#B85549"/>
<path d="M798.399 209.985C797.028 208.17 794.626 207.174 792.24 207.434C790.586 207.61 788.913 208.408 787.91 209.757C786.903 211.103 786.693 213.016 787.607 214.3C788.636 215.747 790.785 216.082 792.604 215.564C794.426 215.048 795.989 213.849 797.479 212.657C797.89 212.324 798.309 211.98 798.57 211.529C798.825 211.075 798.879 210.483 798.562 210.109" fill="#B85549"/>
<path d="M788.789 203.431C789.411 203.396 789.418 207.535 792.96 210.472C796.497 213.419 800.909 212.953 800.943 213.533C800.998 213.794 799.959 214.336 798.096 214.386C796.272 214.45 793.602 213.863 791.436 212.066C789.275 210.264 788.345 207.863 788.204 206.162C788.043 204.432 788.506 203.409 788.789 203.431" fill="#17282F"/>
<path d="M762.037 125.954C762.181 125.629 762.486 125.446 762.721 125.55C762.957 125.654 763.031 126.001 762.887 126.328C762.743 126.655 762.436 126.834 762.203 126.732C761.968 126.631 761.893 126.281 762.037 125.954Z" fill="#17282F"/>
<path d="M738.114 269.609C746.271 266.772 752.692 259.839 755.756 251.764C758.819 243.69 758.71 234.608 756.346 226.303C755.253 222.456 753.709 218.251 755.401 214.627C756.631 211.997 759.275 210.389 761.427 208.443C766.269 204.064 768.84 197.535 769.268 191.022C769.7 184.509 768.148 177.993 765.764 171.913C764.45 168.567 762.864 164.904 764.076 161.521C764.931 159.127 767.018 157.434 768.877 155.701C772.805 152.033 776.069 147.661 778.471 142.853C780.174 139.445 781.428 135.341 779.782 131.906C777.794 127.759 772.567 126.458 767.982 126.108C757.047 125.276 744.947 127.692 737.99 136.169C731.749 143.77 731.031 154.351 730.589 164.175C729.199 195.126 727.826 226.372 733.177 256.887" fill="#17282F"/>
<path d="M839.014 135.819C837.656 136.986 835.748 137.412 834.29 138.384C832.813 139.331 831.752 140.52 830.3 141.856C829.591 142.538 828.815 143.304 828.126 144.097L827.618 144.706L826.842 145.487C826.218 146.082 825.578 146.687 824.922 147.309C823.454 148.635 821.605 150.256 819.005 151.973C816.465 153.659 812.931 155.51 808.73 156.462C800.419 158.311 793.125 156.479 787.774 153.904C782.257 151.212 778.718 147.76 776.274 144.674C771.568 138.406 770.844 133.333 773.008 130.577C775.231 127.736 780.621 128.21 786.726 129.707C789.742 130.391 792.974 131.219 795.762 131.499C798.642 131.851 801.289 131.717 802.95 131.3C803.713 131.137 804.712 130.832 806.298 130.108C807.835 129.422 809.778 128.388 812.004 127.335C813.117 126.812 814.296 126.282 815.56 125.791C816.175 125.545 816.842 125.312 817.481 125.094C818.183 124.864 818.953 124.609 819.672 124.43C822.589 123.694 825.363 123.506 827.948 123.754C833.123 124.19 837.552 126.79 839.257 129.65C841.014 132.522 840.318 134.726 839.014 135.819Z" fill="#17282F"/>
<path d="M699.394 288.641C699.379 288.656 699.242 288.525 698.995 288.25C698.762 287.962 698.345 287.583 697.949 286.973C697.076 285.821 695.961 283.942 695.16 281.285C694.382 278.636 693.938 275.176 694.667 271.27C695.356 267.386 697.572 263.128 701.354 259.869C705.032 256.506 709.875 253.987 714.319 250.468C716.517 248.686 718.617 246.589 720.151 244.039C721.702 241.511 722.495 238.445 722.01 235.364C721.174 229.133 716.024 223.653 715.583 216.166C715.132 208.909 719.234 201.142 726.235 197.729C729.562 195.934 733.064 194.645 735.686 192.333C738.38 190.088 739.562 186.615 739.453 183.24C739.379 179.839 738.311 176.54 736.915 173.534C735.48 170.522 733.735 167.687 732.261 164.777C730.781 161.873 729.547 158.841 729.128 155.699C728.704 152.554 729.163 149.418 730.248 146.672C732.404 141.125 736.558 137.138 740.742 134.53C745.012 131.925 749.439 130.798 753.288 130.166C757.162 129.551 760.537 129.499 763.279 129.521C766.025 129.566 768.149 129.712 769.586 129.836C770.236 129.9 770.774 129.955 771.217 130C771.586 130.044 771.772 130.079 771.772 130.099C771.77 130.146 771.009 130.133 769.571 130.094C768.131 130.057 766.007 129.992 763.279 130.024C760.555 130.076 757.209 130.205 753.407 130.877C749.635 131.561 745.307 132.741 741.223 135.306C737.205 137.874 733.245 141.78 731.247 147.051C730.241 149.669 729.837 152.598 730.253 155.543C730.664 158.495 731.854 161.394 733.319 164.235C734.781 167.09 736.536 169.905 738.03 173.008C739.483 176.119 740.625 179.547 740.72 183.212C740.868 186.831 739.52 190.819 736.538 193.292C733.651 195.825 730.062 197.114 726.85 198.864C720.25 202.073 716.46 209.313 716.845 216.099C717.157 222.997 722.233 228.469 723.187 235.196C723.705 238.552 722.798 241.954 721.122 244.624C719.469 247.33 717.263 249.484 714.991 251.303C710.378 254.885 705.57 257.319 701.964 260.55C698.258 263.673 696.122 267.661 695.373 271.414C694.603 275.168 694.96 278.544 695.644 281.149C697.123 286.408 699.602 288.532 699.394 288.641" fill="#33535F"/>
<path d="M853.543 283.337C853.404 283.215 855.181 282.829 855.927 280.313C856.26 279.111 856.309 277.47 855.618 275.832C854.919 274.204 853.407 272.692 851.506 271.42C849.605 270.114 847.243 269.071 844.908 267.457C842.623 265.923 840.174 263.405 839.904 259.975C839.607 256.612 841.076 253.318 843.032 250.502C845.032 247.649 847.597 245.24 849.583 242.35C851.632 239.515 852.611 236.157 852.101 232.942C851.655 229.728 850.051 226.865 848.309 224.379C844.757 219.4 840.325 215.809 837.51 211.947C834.575 208.2 833.066 204.482 832.776 201.815C832.637 200.482 832.684 199.441 832.796 198.749C832.915 198.058 832.999 197.703 833.044 197.713C833.183 197.723 832.855 199.183 833.272 201.741C833.708 204.289 835.267 207.786 838.229 211.382C841.052 215.077 845.525 218.56 849.275 223.685C851.102 226.238 852.837 229.232 853.352 232.761C853.615 234.514 853.516 236.358 853.05 238.135C852.574 239.914 851.687 241.57 850.643 243.082C848.556 246.11 845.961 248.539 844.068 251.226C842.182 253.898 840.851 256.954 841.089 259.866C841.285 262.815 843.352 265.056 845.528 266.585C847.716 268.156 850.078 269.264 852.026 270.669C853.977 272.05 855.566 273.706 856.287 275.56C856.986 277.413 856.84 279.178 856.403 280.464C855.947 281.771 855.157 282.571 854.544 282.938C853.94 283.327 853.543 283.337 853.543 283.337" fill="#33535F"/>
<path d="M840.882 124.534C840.924 124.534 840.956 124.829 840.973 125.397C840.978 125.962 840.924 126.802 840.723 127.865C840.307 129.962 839.194 133.065 836.433 135.883C833.758 138.706 829.089 140.927 823.847 140.426C821.255 140.208 818.548 139.375 816.179 137.762C813.812 136.151 811.908 133.92 810.035 131.724C808.168 129.501 806.26 127.501 804.049 125.984C801.87 124.445 799.501 123.352 797.164 122.604C792.455 121.121 787.87 121.263 784.249 122.135C780.595 122.983 777.874 124.452 776.097 125.565C774.322 126.705 773.43 127.481 773.361 127.399C773.311 127.35 774.092 126.443 775.814 125.151C777.539 123.887 780.268 122.244 784.028 121.25C787.746 120.229 792.559 119.976 797.511 121.463C799.969 122.217 802.468 123.34 804.773 124.948C807.107 126.52 809.15 128.661 811.011 130.884C812.895 133.09 814.719 135.221 816.892 136.716C819.051 138.208 821.547 139.009 823.954 139.242C828.834 139.762 833.181 137.814 835.791 135.234C838.482 132.659 839.684 129.746 840.235 127.751C840.772 125.721 840.76 124.529 840.882 124.534" fill="#33535F"/>
<path d="M787.158 157.575C786.781 158.614 782.974 158.12 778.501 158.661C774.017 159.109 770.411 160.42 769.816 159.489C769.553 159.045 770.181 158.068 771.638 157.067C773.085 156.063 775.39 155.112 778.077 154.812C780.761 154.519 783.222 154.946 784.851 155.607C786.491 156.269 787.319 157.084 787.158 157.575" fill="#17282F"/>
<path d="M822.251 160.772C821.581 161.637 818.954 160.74 815.797 160.695C812.637 160.541 809.962 161.277 809.345 160.373C809.077 159.932 809.499 159.064 810.666 158.246C811.816 157.428 813.744 156.762 815.916 156.826C818.087 156.895 819.965 157.681 821.066 158.566C822.181 159.456 822.546 160.348 822.251 160.772Z" fill="#17282F"/>
<path d="M714.32 420.058C715.651 422.356 705.856 389.387 705.856 389.387L697.655 419.523L636.809 419.974C636.809 419.974 671.195 307.588 687.525 291.899C708.838 271.422 748.788 270.302 748.788 270.302L772.701 290.709L810.482 271.303C810.482 271.303 810.961 271.347 811.85 271.454C837.024 274.498 858.936 290.114 870.285 312.79L911.252 418.945H857.159L845.627 387.62L849.476 418.945L714.32 420.058" fill="#FA7C41"/>
<path d="M729.334 272.752L784.145 397.451L811.852 271.453C811.852 271.453 804.171 271.007 793.202 270.596C790.158 270.482 786.862 276.452 783.404 282.42C779.964 288.366 776.365 294.31 772.702 294.248C768.006 294.166 763.205 269.902 758.488 269.917C752.515 269.936 746.681 270.05 741.377 270.301C736.898 270.514 732.819 272.417 729.334 272.752Z" fill="#FAFAF9"/>
<path d="M739.731 273.905V262.457C739.731 262.457 772.41 262.891 772.965 289.044C772.965 289.044 777.605 263.275 803.973 262.457L805.666 271.226L798.226 301.297L779.199 313.97H753.542L742.924 300.008L739.731 273.905Z" fill="#FAFAF9"/>
<path d="M783.785 400.777C783.743 400.763 783.857 400.284 784.11 399.38C784.407 398.49 784.836 397.156 785.686 395.568C786.531 393.981 787.817 392.155 789.562 390.296C791.29 388.425 793.369 386.437 795.486 384.077C799.687 379.314 805.159 373.893 809.11 366.52C811.065 362.854 812.416 358.619 812.617 354.11C812.85 349.642 811.747 344.853 808.825 341.123L807.95 340.003L809.383 340.08C809.91 340.107 810.481 340.097 811.048 340.008C813.328 339.634 815.338 338.181 816.761 336.377C818.216 334.558 819.046 332.382 819.368 330.121C820.028 325.583 819.046 321.085 818.36 316.824C816.947 308.318 815.665 300.632 814.582 294.116C813.574 287.772 812.748 282.577 812.146 278.787C811.901 277.087 811.702 275.704 811.549 274.608C811.425 273.652 811.38 273.146 811.425 273.139C811.469 273.131 811.598 273.622 811.804 274.564C812.022 275.649 812.3 277.017 812.639 278.703C813.343 282.475 814.305 287.645 815.482 293.96C816.642 300.464 818.015 308.132 819.532 316.623C820.241 320.862 821.297 325.439 820.62 330.31C820.29 332.714 819.368 335.177 817.77 337.172C816.201 339.165 813.953 340.836 811.254 341.282C810.582 341.388 809.906 341.403 809.281 341.366L809.836 340.323C812.999 344.36 814.139 349.485 813.874 354.167C813.648 358.886 812.201 363.31 810.153 367.073C806.014 374.634 800.425 380.005 796.15 384.685C793.964 387.034 791.83 388.987 790.078 390.787C788.308 392.571 787.012 394.294 786.12 395.811C784.38 398.876 783.919 400.827 783.785 400.777" fill="#17282F"/>
<path d="M783.777 399.702C783.742 399.729 783.387 399.34 782.753 398.572C782.029 397.699 781.11 396.589 779.975 395.218C777.551 392.321 773.945 388.212 769.406 383.195C764.898 378.159 759.423 372.221 753.971 365.078C751.291 361.509 748.354 357.736 746.317 353.183C744.309 348.687 743.39 343.138 745.393 338.04C745.668 337.356 746.007 336.704 746.347 336.114L746.689 337.056C741.814 335.299 737.608 332.233 734.475 328.557C731.285 324.916 729.007 320.78 727.441 316.663C724.269 308.36 724.107 300.253 724.405 293.71C724.764 287.117 725.659 281.868 726.264 278.254C726.581 276.564 726.836 275.188 727.037 274.105C727.23 273.161 727.352 272.67 727.396 272.678C727.439 272.683 727.401 273.188 727.29 274.145C727.149 275.238 726.973 276.623 726.754 278.329C726.298 281.957 725.545 287.214 725.302 293.747C725.124 300.233 725.396 308.199 728.541 316.237C730.095 320.235 732.333 324.232 735.419 327.73C738.455 331.261 742.48 334.166 747.113 335.837L747.844 336.099L747.452 336.778C747.145 337.311 746.84 337.904 746.59 338.523C744.763 343.151 745.569 348.383 747.474 352.673C749.408 357.042 752.265 360.78 754.92 364.361C760.273 371.484 765.666 377.475 770.091 382.59C774.542 387.686 778.054 391.902 780.366 394.904C781.516 396.413 782.396 397.59 782.959 398.415C783.531 399.233 783.811 399.675 783.777 399.702" fill="#17282F"/>
<path d="M783.176 419.778C782.821 419.753 782.663 414.754 782.821 408.618C782.98 402.478 783.399 397.497 783.756 397.489C784.11 397.482 784.271 402.479 784.11 408.652C783.951 414.824 783.533 419.805 783.176 419.778" fill="#17282F"/>
<path d="M704.28 396.817C704.189 396.787 704.593 395.265 705.341 392.522C706.057 389.771 707.086 385.788 708.082 380.811C710.082 370.875 711.827 356.866 711.059 341.398C710.66 333.675 709.901 326.307 708.144 319.873C706.441 313.426 703.646 308.006 700.441 304.132C697.269 300.216 693.863 297.839 691.397 296.503C688.901 295.185 687.375 294.754 687.412 294.637C687.424 294.595 687.811 294.677 688.54 294.875C689.266 295.078 690.319 295.45 691.625 296.055C694.21 297.279 697.794 299.601 701.142 303.55C704.523 307.448 707.492 312.998 709.292 319.558C711.148 326.114 711.944 333.559 712.35 341.336C713.123 356.938 711.217 371.056 708.974 380.999C707.857 385.981 706.692 389.947 705.824 392.663C705.386 394.021 705.001 395.062 704.744 395.766C704.481 396.467 704.322 396.832 704.28 396.817" fill="#17282F"/>
<path d="M846.099 376.611C846.01 376.609 845.95 375.132 845.918 372.47C845.898 369.808 845.829 365.954 845.663 361.2C845.353 351.693 844.488 338.564 842.411 324.202C839.236 301.534 833.838 282.767 831.987 275.988L831.811 275.344L832.321 275.752C834.002 277.091 834.81 277.782 834.765 277.844C834.718 277.906 833.826 277.329 832.063 276.097L832.398 275.859C834.728 282.491 840.498 301.249 843.69 324.018C845.772 338.443 846.498 351.638 846.575 361.18C846.622 365.949 846.555 369.813 846.421 372.477C846.297 375.142 846.188 376.614 846.099 376.611" fill="#17282F"/>
<path d="M766.896 274.236C766.906 274.347 766.274 274.308 765.431 274.888C764.574 275.45 763.681 276.677 762.826 278.405C761.047 281.795 759.079 286.861 758.491 292.857L758.33 294.482L757.336 293.174C756.761 292.413 756.154 291.612 755.54 290.802C751.408 285.424 747.353 280.806 744.352 277.525C741.345 274.246 739.427 272.263 739.556 272.124C739.67 272.003 741.816 273.755 745.009 276.893C748.196 280.028 752.397 284.591 756.561 290.014C757.18 290.834 757.788 291.642 758.368 292.413L757.215 292.728C757.864 286.524 760.055 281.339 762.075 277.986C763.042 276.288 764.145 274.984 765.196 274.486C766.244 273.963 766.918 274.189 766.896 274.236" fill="#17282F"/>
<path d="M805.251 271.762C805.387 271.876 803.707 274.196 800.869 277.859C798.036 281.52 794.048 286.521 789.587 291.994C788.777 292.98 787.986 293.949 787.225 294.876L786.125 296.225L786.093 294.487C786.038 291.397 785.949 288.517 785.473 285.986C785.022 283.453 784.164 281.314 783.148 279.703C781.103 276.437 778.749 275.507 778.88 275.326C778.905 275.267 779.5 275.413 780.454 275.978C781.406 276.538 782.69 277.582 783.855 279.235C785.027 280.873 786.038 283.128 786.581 285.765C787.153 288.398 787.292 291.367 787.369 294.457L786.236 294.068C786.992 293.139 787.783 292.167 788.586 291.176C793.05 285.704 797.147 280.796 800.163 277.282C803.179 273.77 805.112 271.651 805.251 271.762" fill="#17282F"/>
<path d="M782.702 394.573C782.615 394.581 782.4 393.111 782.087 390.444C781.78 387.554 781.376 383.742 780.885 379.135C779.926 369.58 778.692 356.37 777.403 341.777C776.119 327.174 775.026 313.951 774.3 304.377C773.978 299.752 773.71 295.93 773.507 293.033C773.348 290.351 773.304 288.866 773.39 288.859C773.48 288.852 773.695 290.324 774.007 292.991C774.315 295.881 774.719 299.695 775.21 304.302C776.169 313.857 777.403 327.065 778.692 341.663C779.976 356.254 781.069 369.474 781.792 379.048C782.117 383.673 782.385 387.497 782.588 390.394C782.747 393.076 782.791 394.563 782.702 394.573" fill="#17282F"/>
<path d="M782.761 311.521C782.644 311.4 783.675 310.788 785.014 311.672C785.619 312.096 786.28 312.884 786.298 314.022C786.335 315.184 785.388 316.29 784.238 316.639C783.103 317.036 781.688 316.701 781.031 315.74C780.374 314.81 780.446 313.784 780.684 313.085C781.242 311.581 782.436 311.467 782.414 311.635C782.501 311.811 781.74 312.2 781.566 313.323C781.482 313.853 781.566 314.547 781.97 315.011C782.347 315.479 783.095 315.648 783.839 315.412C784.578 315.167 785.083 314.587 785.108 313.985C785.162 313.375 784.823 312.765 784.441 312.384C783.638 311.581 782.793 311.715 782.761 311.521" fill="#17282F"/>
<path d="M787.527 342.327C787.433 342.183 788.605 341.784 789.74 342.971C790.243 343.531 790.727 344.468 790.466 345.606C790.219 346.773 788.979 347.621 787.752 347.648C786.531 347.73 785.219 346.994 784.87 345.854C784.511 344.743 784.907 343.767 785.361 343.167C786.387 341.881 787.589 342.176 787.507 342.327C787.529 342.52 786.659 342.632 786.124 343.668C785.871 344.156 785.73 344.862 785.983 345.435C786.206 346.007 786.897 346.389 787.698 346.359C788.496 346.317 789.15 345.876 789.321 345.286C789.522 344.694 789.319 344.002 789.024 343.539C788.399 342.555 787.522 342.52 787.527 342.327Z" fill="#17282F"/>
<path d="M783.011 398.881C765.352 396.189 746.768 379.581 741.544 362.522C738.946 354.05 738.683 344.786 734.492 336.979C732.051 332.431 728.4 328.636 725.803 324.175C717.175 309.371 721.575 290.718 726.209 274.221L726.95 274.571C726.765 275.575 726.537 276.796 726.264 278.254C725.659 281.867 724.764 287.117 724.405 293.71C724.108 300.253 724.269 308.36 727.441 316.663C727.967 318.041 728.571 319.424 729.263 320.787C732.143 327.34 736.669 332.949 742.939 335.382C743.916 335.908 744.929 336.376 745.975 336.788C745.767 337.187 745.566 337.608 745.393 338.039C743.39 343.138 744.31 348.687 746.317 353.183C748.354 357.736 751.291 361.508 753.971 365.077C759.423 372.22 764.898 378.158 769.407 383.195C773.945 388.211 777.551 392.32 779.975 395.218C781.11 396.588 782.029 397.699 782.753 398.571C782.845 398.683 782.929 398.787 783.011 398.881M726.457 280.66C726.564 279.823 726.665 279.042 726.755 278.328C726.938 276.898 727.092 275.694 727.218 274.697L727.649 274.9C727.201 276.806 726.802 278.727 726.457 280.66" fill="#F95B12"/>
<path d="M783.174 398.906C783.12 398.896 783.065 398.889 783.011 398.881C782.929 398.787 782.845 398.683 782.753 398.572C782.029 397.699 781.11 396.589 779.975 395.218C777.551 392.321 773.945 388.212 769.406 383.195C764.898 378.159 759.423 372.221 753.971 365.078C751.291 361.509 748.354 357.736 746.317 353.183C744.309 348.688 743.39 343.138 745.393 338.04C745.566 337.609 745.767 337.187 745.975 336.788C744.929 336.377 743.915 335.908 742.939 335.383C744.191 335.869 745.509 336.228 746.899 336.446C743.844 340.025 744.617 344.898 745.663 349.486C746.709 354.076 748.84 356.735 751.452 360.651C759.877 373.276 774.031 387.763 783.174 398.906ZM729.263 320.787C728.571 319.424 727.966 318.041 727.441 316.663C724.269 308.36 724.107 300.253 724.405 293.71C724.764 287.117 725.659 281.868 726.264 278.254C726.536 276.797 726.764 275.575 726.95 274.571L727.218 274.698C727.091 275.694 726.938 276.899 726.754 278.329C726.665 279.043 726.564 279.823 726.457 280.661C724.695 290.545 724.37 300.714 726.17 310.569C726.802 314.026 727.828 317.523 729.263 320.787" fill="#0F191D"/>
<path d="M856.469 417.068C850.707 409.474 847.445 399.36 846.097 388.893L856.469 417.068Z" fill="#8F9192"/>
<path d="M856.474 417.07C856.471 417.07 856.471 417.068 856.469 417.068L846.096 388.893C845.167 381.675 845.147 374.289 845.841 367.446C845.886 369.409 845.908 371.097 845.918 372.47C845.95 375.132 846.01 376.609 846.099 376.612C846.188 376.612 846.297 375.14 846.421 372.478C846.547 369.947 846.614 366.336 846.58 361.892C846.58 361.89 846.58 361.89 846.582 361.887L846.646 356.298C858.471 372.222 860.461 397.644 856.474 417.07" fill="#F95B12"/>
<path d="M846.099 376.611C846.009 376.609 845.95 375.132 845.918 372.47C845.908 371.097 845.885 369.409 845.841 367.446C846.034 365.547 846.282 363.691 846.579 361.892C846.614 366.336 846.547 369.947 846.421 372.477C846.297 375.139 846.188 376.611 846.099 376.611Z" fill="#0F191D"/>
<path d="M265.632 631.606H556.954V144.892H265.632V631.606Z" fill="#F3F2F1"/>
<path d="M342.92 431.505L346.042 437.83L353.022 438.844L347.971 443.769L349.163 450.721L342.92 447.437L336.676 450.721L337.869 443.769L332.817 438.844L339.797 437.83L342.92 431.505" fill="#F95B12"/>
<path d="M377.606 431.505L380.729 437.83L387.711 438.844L382.657 443.769L383.852 450.721L377.606 447.437L371.363 450.721L372.555 443.769L367.504 438.844L374.486 437.83L377.606 431.505" fill="#F95B12"/>
<path d="M412.293 431.505L415.416 437.83L422.397 438.844L417.346 443.769L418.538 450.721L412.293 447.437L406.049 450.721L407.242 443.769L402.19 438.844L409.172 437.83L412.293 431.505" fill="#F95B12"/>
<path d="M446.981 431.505L450.102 437.83L457.083 438.844L452.032 443.769L453.224 450.721L446.981 447.437L440.738 450.721L441.93 443.769L436.879 438.844L443.858 437.83L446.981 431.505" fill="#F95B12"/>
<path d="M481.667 431.505L484.79 437.83L491.769 438.844L486.718 443.769L487.91 450.721L481.667 447.437L475.423 450.721L476.616 443.769L471.564 438.844L478.544 437.83L481.667 431.505" fill="#F95B12"/>
<path d="M399.402 488.554C399.402 488.914 377.286 489.201 350.011 489.201C322.723 489.201 300.612 488.914 300.612 488.554C300.612 488.2 322.723 487.91 350.011 487.91C377.286 487.91 399.402 488.2 399.402 488.554Z" fill="#F95B12"/>
<path d="M523.54 510.004C523.54 510.36 474.214 510.65 413.38 510.65C352.526 510.65 303.212 510.36 303.212 510.004C303.212 509.649 352.526 509.359 413.38 509.359C474.214 509.359 523.54 509.649 523.54 510.004Z" fill="#17282F"/>
<path d="M523.54 528.434C523.54 528.791 474.214 529.081 413.38 529.081C352.526 529.081 303.212 528.791 303.212 528.434C303.212 528.077 352.526 527.787 413.38 527.787C474.214 527.787 523.54 528.077 523.54 528.434Z" fill="#17282F"/>
<path d="M523.54 546.862C523.54 547.216 474.214 547.504 413.38 547.504C352.526 547.504 303.212 547.216 303.212 546.862C303.212 546.505 352.526 546.215 413.38 546.215C474.214 546.215 523.54 546.505 523.54 546.862Z" fill="#17282F"/>
<path d="M523.54 565.29C523.54 565.647 474.214 565.935 413.38 565.935C352.526 565.935 303.212 565.647 303.212 565.29C303.212 564.933 352.526 564.643 413.38 564.643C474.214 564.643 523.54 564.933 523.54 565.29Z" fill="#17282F"/>
<path d="M523.54 583.719C523.54 584.074 474.214 584.361 413.38 584.361C352.526 584.361 303.212 584.074 303.212 583.719C303.212 583.36 352.526 583.073 413.38 583.073C474.214 583.073 523.54 583.36 523.54 583.719Z" fill="#17282F"/>
<path d="M284.34 410.522H535.282V169.606H284.34V410.522Z" fill="#DADBD8"/>
<path d="M425.225 289C425.284 295.265 425.792 298.963 425.852 305.226C425.867 306.793 425.981 308.58 427.202 309.561C428.231 310.386 429.765 310.329 430.947 309.744C432.132 309.157 433.037 308.141 433.872 307.117C440.797 298.631 445.052 287.998 445.9 277.076C445.972 276.134 445.989 275.081 445.37 274.364C444.388 273.227 442.549 273.653 441.179 274.263C434.442 277.257 428.742 282.523 425.225 289" fill="#17282F"/>
<path d="M383.09 214.047L383.214 220.305L384.47 313.974C384.617 324.849 394.082 333.382 405.723 333.139H405.726C417.484 332.892 427.033 323.788 427.065 312.801C427.102 301.269 427.35 289.129 427.35 289.129C427.35 289.129 442.206 286.663 445.285 267.279C446.816 257.64 446.33 241.833 445.518 228.915C444.784 217.286 434.528 208.606 422.941 209.831L383.09 214.047Z" fill="#F8A58D"/>
<path d="M438.057 239.919C438.107 241.232 437.031 242.352 435.66 242.427C434.295 242.501 433.145 241.497 433.1 240.186C433.053 238.873 434.126 237.75 435.494 237.678C436.862 237.601 438.012 238.607 438.057 239.919Z" fill="#17282F"/>
<path d="M442.09 237.135C441.78 237.46 439.899 236.067 437.222 236.072C434.55 236.042 432.587 237.418 432.297 237.091C432.153 236.947 432.468 236.36 433.323 235.738C434.163 235.118 435.598 234.516 437.267 234.523C438.932 234.533 440.332 235.145 441.14 235.772C441.963 236.404 442.241 236.992 442.09 237.135" fill="#17282F"/>
<path d="M412.292 239.919C412.339 241.232 411.266 242.352 409.895 242.427C408.527 242.501 407.38 241.497 407.333 240.186C407.285 238.873 408.361 237.75 409.727 237.678C411.097 237.601 412.245 238.607 412.292 239.919Z" fill="#17282F"/>
<path d="M415.797 237.635C415.488 237.959 413.602 236.566 410.93 236.574C408.258 236.542 406.295 237.92 406.003 237.59C405.861 237.446 406.171 236.861 407.029 236.239C407.871 235.617 409.306 235.017 410.972 235.022C412.64 235.032 414.04 235.647 414.846 236.274C415.666 236.906 415.949 237.491 415.797 237.635Z" fill="#17282F"/>
<path d="M425.505 257.475C425.492 257.321 427.155 257.036 429.847 256.689C430.531 256.62 431.178 256.484 431.294 256.018C431.453 255.524 431.168 254.788 430.836 253.995C430.196 252.342 429.522 250.607 428.816 248.793C426.013 241.387 423.98 235.298 424.28 235.186C424.58 235.077 427.096 240.991 429.902 248.396C430.576 250.223 431.223 251.963 431.837 253.628C432.095 254.404 432.539 255.284 432.192 256.31C432.008 256.818 431.505 257.19 431.069 257.306C430.63 257.44 430.246 257.448 429.906 257.468C427.195 257.614 425.512 257.626 425.505 257.475" fill="#17282F"/>
<path d="M427.351 289.129C427.351 289.129 414.311 289.969 401.394 282.204C401.394 282.204 407.689 295.518 427.09 293.704L427.351 289.129Z" fill="#F68260"/>
<path d="M424.371 263.921C423.41 262.65 421.724 261.951 420.051 262.132C418.889 262.256 417.717 262.816 417.013 263.76C416.306 264.707 416.16 266.048 416.8 266.95C417.521 267.964 419.03 268.199 420.307 267.837C421.583 267.476 422.681 266.633 423.724 265.795C424.014 265.565 424.309 265.322 424.49 265.004C424.671 264.687 424.708 264.273 424.485 264.011" fill="#F68260"/>
<path d="M417.631 259.324C418.068 259.3 418.073 262.204 420.556 264.266C423.039 266.333 426.133 266.006 426.157 266.413C426.197 266.596 425.466 266.975 424.162 267.01C422.878 267.057 421.01 266.646 419.488 265.384C417.971 264.12 417.319 262.432 417.22 261.24C417.108 260.028 417.433 259.309 417.631 259.324Z" fill="#17282F"/>
<path d="M412.124 212.439C414.176 212.89 415.787 214.479 417.024 216.179C418.261 217.877 419.259 219.765 420.727 221.27C424.018 224.645 429.61 225.491 433.754 223.243C435.322 224.749 437.377 226.38 439.437 225.679C440.639 225.27 441.481 224.093 441.724 222.846C441.965 221.597 441.682 220.296 441.179 219.126C439.152 214.409 433.927 211.879 428.888 210.89C422.759 209.688 416.303 210.188 410.434 212.325" fill="#17282F"/>
<path d="M365.387 411.302C366.319 412.916 359.447 389.784 359.447 389.784L353.694 410.925L311.005 411.243C311.005 411.243 335.13 332.395 346.588 321.388C361.538 307.023 389.567 306.237 389.567 306.237L432.851 306.939C432.851 306.939 433.189 306.971 433.811 307.045C451.472 309.182 466.844 320.137 474.807 336.046L503.547 410.521H465.599L457.507 388.545L460.206 410.521L365.387 411.302" fill="#17282F"/>
<path d="M439.717 218.684C443.018 223.661 443.288 230.068 444.061 235.992C445.367 246 446.064 256.204 444.403 266.16C442.743 276.118 438.549 285.888 431.24 292.85C423.929 299.812 413.256 303.592 403.434 301.267C392.403 298.655 388.856 288.986 385.74 278.086C382.622 267.186 389.575 257.287 392.68 246.384C395.072 237.989 395.974 226.14 401.394 219.299C406.812 212.456 415.834 212 418.483 212.112C418.483 212.112 433.099 208.711 439.717 218.684M452.409 304.39C451.088 301.279 446.346 301.391 444.25 298.739C441.96 295.842 443.987 291.69 445.687 288.414C453.893 272.594 453.068 253.777 451.573 236.016C450.934 228.415 450.158 220.635 446.862 213.755C440.289 200.034 424.402 189.166 404.626 190.048C388.541 190.675 376.307 205.184 367.598 218.724C358.886 232.262 354.266 253.537 357.121 269.382C358.549 277.31 367.102 283.427 365.541 291.333C364.557 296.315 359.335 302.291 360.358 307.265C361.754 314.058 371.616 316.423 377.385 320.269C383.324 324.228 388.261 329.477 393.476 334.352C398.688 339.227 404.388 343.855 411.147 346.145C417.908 348.432 425.959 348.004 431.473 343.473C440.467 336.085 439.6 321.343 447.784 313.065C450.248 310.571 453.779 307.614 452.409 304.39" fill="#FA7C41"/>
<path d="M362.058 299.596C361.855 299.479 361.651 299.368 361.448 299.256L364.869 293.575C364.125 295.519 363.01 297.561 362.058 299.596Z" fill="#8F9192"/>
<path d="M401.988 326.402C400.268 326.402 398.551 326.189 396.912 325.765C389.7 323.899 383.771 318.858 378.443 313.646C373.285 308.6 368.316 303.164 362.058 299.595C363.009 297.56 364.125 295.518 364.868 293.575L367.052 289.951C373.27 307.338 391.398 319.46 409.731 319.458C411.991 319.458 414.257 319.274 416.502 318.893C413.714 323.931 407.842 326.402 401.988 326.402Z" fill="#F95B12"/>
<path d="M444.484 299.012C444.402 298.925 444.323 298.833 444.249 298.739C443.354 297.606 443.119 296.283 443.265 294.895L444.541 298.747C444.524 298.836 444.504 298.925 444.484 299.012Z" fill="#8F9192"/>
<path d="M431.96 313.226C430.901 313.226 429.84 312.755 429.422 311.803C428.931 310.698 429.486 309.362 430.371 308.534C431.253 307.709 432.411 307.25 433.489 306.702C438.23 304.293 441.854 299.782 443.18 294.632L443.266 294.895C443.12 296.283 443.356 297.606 444.25 298.739C444.325 298.833 444.404 298.925 444.486 299.012C443.403 303.731 439.742 307.401 436.25 310.777C435.271 311.724 434.237 312.703 432.931 313.089C432.619 313.181 432.289 313.226 431.96 313.226" fill="#F95B12"/>
<path d="M1351.25 403.479C1351.25 423.533 1335 439.789 1314.94 439.789C1294.89 439.789 1278.63 423.533 1278.63 403.479C1278.63 383.426 1294.89 367.17 1314.94 367.17C1335 367.17 1351.25 383.426 1351.25 403.479Z" fill="#DADBD8"/>
<path d="M1309.43 418.945C1309.32 418.806 1311.28 417.014 1314.53 414.223C1317.79 411.433 1322.35 407.643 1327.45 403.504L1327.43 404.493L1327.18 404.272C1322.16 399.918 1317.66 395.92 1314.45 392.978C1311.24 390.036 1309.32 388.147 1309.43 388.013C1309.55 387.88 1311.69 389.523 1315.05 392.289C1318.42 395.055 1323 398.941 1328.02 403.296L1328.28 403.519L1328.86 404.022L1328.26 404.508C1323.16 408.642 1318.51 412.317 1315.1 414.93C1311.7 417.539 1309.54 419.081 1309.43 418.945" fill="#17282F"/>
<path d="M211.684 403.479C211.684 383.426 227.94 367.17 247.994 367.17C268.047 367.17 284.304 383.426 284.304 403.479C284.304 423.533 268.047 439.789 247.994 439.789C227.94 439.789 211.684 423.533 211.684 403.479" fill="#DADBD8"/>
<path d="M253.504 388.012C253.616 388.151 251.66 389.943 248.403 392.734C245.148 395.525 240.588 399.314 235.49 403.453L235.505 402.464L235.761 402.685C240.778 407.042 245.273 411.037 248.483 413.979C251.695 416.921 253.621 418.807 253.504 418.944C253.388 419.077 251.249 417.434 247.885 414.668C244.521 411.902 239.932 408.016 234.914 403.659L234.659 403.438L234.078 402.935L234.676 402.449C239.779 398.315 244.429 394.64 247.834 392.027C251.236 389.418 253.393 387.876 253.504 388.012" fill="#17282F"/>
<path d="M842.849 71.7444C902.26 89.9389 951.039 130.179 980.185 185.06C1009.33 239.936 1015.38 302.867 997.173 362.298C959.617 484.952 829.271 554.181 706.619 516.622C583.97 479.063 514.736 348.765 552.295 226.066C570.49 166.652 610.732 117.879 665.611 88.7269C720.489 59.5826 783.432 53.55 842.849 71.7444ZM644.041 48.1196C578.314 83.0313 530.118 141.446 508.329 212.603C463.345 359.495 546.265 515.601 693.156 560.59H693.159C783.301 588.191 876.866 567.572 946.139 513.621L1180.93 807.329L1216.85 778.619L980.076 482.434C1007.34 452.789 1028.58 416.775 1041.14 375.758C1044.11 366.06 1046.54 356.295 1048.44 346.473C1060.45 284.238 1050.95 220.257 1020.8 163.487C985.886 97.7633 927.468 49.567 856.312 27.7788C785.152 5.98563 709.765 13.2128 644.041 48.1196" fill="#33535F"/>
</g>
<defs>
<clipPath id="clip0_294_2570">
<rect width="1598.27" height="963.133" fill="white"/>
</clipPath>
</defs>
</svg>
